<svg width="258" height="368" viewBox="0 0 258 368" fill="none" xmlns="http://www.w3.org/2000/svg">
<ellipse cx="96" cy="356" rx="95" ry="12" fill="black" fill-opacity="0.5"/>
<rect x="120.196" y="255.056" width="45.0309" height="92.9437" rx="3.51536" fill="#00ADB5" stroke="black" stroke-width="1.64486" stroke-linejoin="round"/>
<rect x="2.39487" y="281.895" width="45.0309" height="66.1053" rx="3.51536" fill="#EEEEEE" stroke="black" stroke-width="1.64486" stroke-linejoin="round"/>
<rect x="211.338" y="152.026" width="45.0309" height="195.974" rx="3.51536" fill="#00ADB5" stroke="black" stroke-width="1.64486" stroke-linejoin="round"/>
<path d="M62.1686 128.168L108.468 128.168C108.468 128.168 101.089 195.602 91.0462 206.658C81.0037 217.713 28.4448 248.034 28.4448 248.034L10.7444 237.17L43.7417 185.203C43.7417 185.203 40.1129 164.938 62.1686 128.168Z" fill="#00ADB5" stroke="black" stroke-width="1.39887"/>
<path d="M29.1933 247.426L10.7444 237.173L1.40734 247.226C1.40734 247.226 17.1476 256.349 28.1292 259.925L23.4782 253.79L29.1933 247.426Z" fill="#EEEEEE" stroke="black" stroke-width="1.39887" stroke-linejoin="round"/>
<path d="M62.366 127.186L112.953 127.119C112.953 127.119 141.075 151.849 144.618 166.358C148.161 180.868 144.121 233.524 144.121 233.524L123.675 242.564L102.567 186.947C102.567 186.947 80.4977 166.041 62.366 127.186Z" fill="#00ADB5"/>
<path d="M62.366 127.186L62.365 126.487C62.1262 126.487 61.904 126.609 61.7758 126.811C61.6476 127.012 61.6311 127.265 61.7321 127.482L62.366 127.186ZM112.953 127.119L113.415 126.594L113.217 126.42L112.952 126.42L112.953 127.119ZM144.121 233.524L144.403 234.164L144.786 233.995L144.818 233.578L144.121 233.524ZM123.675 242.564L123.021 242.812L123.283 243.502L123.958 243.204L123.675 242.564ZM102.567 186.947L103.221 186.698L103.164 186.549L103.048 186.439L102.567 186.947ZM62.3669 127.885L112.954 127.819L112.952 126.42L62.365 126.487L62.3669 127.885ZM143.838 232.885L123.392 241.924L123.958 243.204L144.403 234.164L143.838 232.885ZM124.329 242.316L103.221 186.698L101.913 187.195L123.021 242.812L124.329 242.316ZM102.567 186.947C103.048 186.439 103.048 186.439 103.048 186.439C103.048 186.439 103.047 186.439 103.047 186.438C103.047 186.438 103.046 186.437 103.045 186.436C103.042 186.434 103.039 186.43 103.034 186.426C103.024 186.416 103.008 186.401 102.988 186.382C102.947 186.342 102.885 186.283 102.804 186.203C102.641 186.043 102.397 185.802 102.081 185.481C101.448 184.84 100.521 183.877 99.3508 182.6C97.0106 180.047 93.6982 176.234 89.8194 171.209C82.0615 161.16 72.0402 146.263 62.9998 126.89L61.7321 127.482C70.8234 146.964 80.9026 161.948 88.7121 172.064C92.617 177.123 95.9551 180.965 98.3194 183.546C99.5016 184.836 100.44 185.81 101.085 186.464C101.407 186.79 101.656 187.037 101.825 187.202C101.91 187.285 101.974 187.347 102.018 187.389C102.04 187.41 102.056 187.426 102.068 187.437C102.073 187.443 102.078 187.447 102.081 187.45C102.082 187.451 102.083 187.452 102.084 187.453C102.085 187.453 102.085 187.454 102.085 187.454C102.085 187.454 102.086 187.454 102.567 186.947ZM112.953 127.119C112.492 127.645 112.492 127.645 112.492 127.645C112.492 127.645 112.492 127.645 112.493 127.646C112.493 127.646 112.495 127.647 112.496 127.649C112.499 127.652 112.504 127.656 112.511 127.662C112.524 127.673 112.544 127.691 112.57 127.714C112.623 127.761 112.702 127.831 112.804 127.922C113.01 128.106 113.312 128.377 113.698 128.728C114.471 129.43 115.58 130.449 116.922 131.718C119.607 134.257 123.222 137.791 126.946 141.775C130.672 145.762 134.497 150.189 137.608 154.514C140.729 158.855 143.086 163.032 143.938 166.524L145.297 166.193C144.379 162.43 141.891 158.075 138.743 153.698C135.585 149.306 131.716 144.83 127.968 140.82C124.219 136.809 120.582 133.254 117.883 130.702C116.534 129.426 115.418 128.4 114.639 127.693C114.249 127.339 113.944 127.065 113.736 126.879C113.632 126.786 113.552 126.715 113.498 126.667C113.471 126.643 113.45 126.625 113.437 126.613C113.43 126.607 113.424 126.602 113.421 126.599C113.419 126.597 113.418 126.596 113.417 126.595C113.416 126.595 113.416 126.595 113.416 126.595C113.415 126.594 113.415 126.594 112.953 127.119ZM143.938 166.524C144.804 170.067 145.216 176.007 145.336 182.986C145.455 189.945 145.282 197.873 144.999 205.356C144.716 212.838 144.322 219.867 143.998 225.026C143.837 227.606 143.693 229.718 143.59 231.184C143.538 231.918 143.496 232.49 143.468 232.878C143.453 233.072 143.442 233.221 143.435 233.32C143.431 233.37 143.428 233.408 143.426 233.433C143.425 233.446 143.424 233.455 143.424 233.462C143.424 233.465 143.423 233.467 143.423 233.469C143.423 233.469 143.423 233.47 143.423 233.47C143.423 233.471 143.423 233.471 144.121 233.524C144.818 233.578 144.818 233.578 144.818 233.577C144.818 233.577 144.818 233.576 144.818 233.575C144.818 233.574 144.818 233.571 144.819 233.568C144.819 233.562 144.82 233.552 144.821 233.539C144.823 233.514 144.826 233.476 144.829 233.425C144.837 233.325 144.848 233.176 144.863 232.981C144.891 232.591 144.933 232.018 144.985 231.283C145.089 229.813 145.233 227.698 145.395 225.114C145.718 219.947 146.113 212.905 146.397 205.409C146.681 197.914 146.854 189.957 146.734 182.962C146.615 175.988 146.204 169.904 145.297 166.193L143.938 166.524Z" fill="black"/>
<path fill-rule="evenodd" clip-rule="evenodd" d="M106.736 44.6845C107.886 44.2647 108.982 43.6512 109.982 42.7993C117.53 36.3688 114.293 26.6671 109.725 21.6161C105.158 16.5652 77.2138 18.5799 90.3958 41.9789C90.4513 42.0123 90.5079 42.0459 90.5655 42.0798C92.0392 46.7693 90.7963 50.7917 89.305 55.6179C88.6968 57.5864 88.0472 59.6885 87.5238 62.0242L101.505 61.0225C105.347 55.8045 106.804 50.5447 106.736 44.6845Z" fill="#F5B9AB"/>
<path d="M109.982 42.7993L110.515 43.4253L109.982 42.7993ZM106.736 44.6845L106.454 43.9119C106.126 44.0315 105.909 44.3451 105.913 44.6941L106.736 44.6845ZM109.725 21.6161L109.116 22.1678L109.725 21.6161ZM90.3958 41.9789L89.6793 42.3825C89.7491 42.5064 89.8497 42.61 89.9715 42.6834L90.3958 41.9789ZM90.5655 42.0798L91.3501 41.8332C91.289 41.6388 91.1578 41.4739 90.9821 41.3707L90.5655 42.0798ZM89.305 55.6179L90.0908 55.8607L89.305 55.6179ZM87.5238 62.0242L86.7213 61.8444C86.6644 62.0981 86.7309 62.3638 86.9006 62.5609C87.0703 62.758 87.3232 62.8631 87.5826 62.8446L87.5238 62.0242ZM101.505 61.0225L101.563 61.8428C101.803 61.8256 102.024 61.704 102.167 61.5102L101.505 61.0225ZM109.449 42.1733C108.528 42.9578 107.518 43.5235 106.454 43.9119L107.017 45.4571C108.254 45.006 109.436 44.3446 110.515 43.4253L109.449 42.1733ZM109.116 22.1678C111.304 24.5874 113.166 28.1202 113.58 31.7828C113.99 35.4075 112.988 39.1576 109.449 42.1733L110.515 43.4253C114.524 40.0106 115.678 35.6946 115.214 31.598C114.755 27.5393 112.715 23.6958 110.335 21.0645L109.116 22.1678ZM91.1124 41.5752C87.8722 35.8237 87.2429 31.5317 88.0111 28.4121C88.7739 25.3147 90.9592 23.1962 93.7563 21.8721C96.565 20.5426 99.9341 20.0475 102.883 20.1978C104.353 20.2728 105.695 20.5072 106.788 20.8632C107.897 21.2242 108.68 21.6867 109.116 22.1678L110.335 21.0645C109.629 20.2828 108.539 19.7034 107.297 19.2991C106.04 18.8899 104.552 18.6359 102.966 18.5551C99.8025 18.3938 96.153 18.9178 93.0525 20.3854C89.9405 21.8586 87.326 24.3153 86.414 28.0188C85.5074 31.7001 86.3284 36.4346 89.6793 42.3825L91.1124 41.5752ZM90.9821 41.3707C90.927 41.3383 90.8731 41.3062 90.8202 41.2744L89.9715 42.6834C90.0296 42.7184 90.0887 42.7535 90.1489 42.7889L90.9821 41.3707ZM90.0908 55.8607C91.5715 51.069 92.9118 46.8029 91.3501 41.8332L89.7809 42.3263C91.1666 46.7358 90.0212 50.5144 88.5193 55.3751L90.0908 55.8607ZM88.3264 62.2041C88.8417 59.9046 89.4817 57.8319 90.0908 55.8607L88.5193 55.3751C87.9119 57.3408 87.2528 59.4725 86.7213 61.8444L88.3264 62.2041ZM101.446 60.2021L87.465 61.2039L87.5826 62.8446L101.563 61.8428L101.446 60.2021ZM105.913 44.6941C105.98 50.3888 104.571 55.471 100.842 60.5348L102.167 61.5102C106.123 56.1379 107.629 50.7006 107.558 44.6749L105.913 44.6941Z" fill="black"/>
<path d="M87.8876 27.849C85.6999 30.8927 88.0562 38.4101 89.7948 40.2903C75.3887 32.2968 84.509 14.2617 88.954 17.5505C89.6783 10.8826 97.3294 8.53007 102.545 14.1693C115.622 3.60913 116.31 21.6033 111.694 24.3398C107.079 27.0764 101.479 24.4703 98.5727 25.8815C95.6665 27.2926 93.8732 35.8404 92.9318 31.0962C91.9905 26.3521 90.6222 24.0443 87.8876 27.849Z" fill="#00ADB5" stroke="black" stroke-width="1.64486"/>
<path d="M114.642 128.265C129.721 118.236 123.428 83.5813 121.283 73.7283C120.897 71.9556 120.325 70.255 119.632 68.5786C113.932 54.8001 99.8708 43.7023 86.4035 50.1027C57.7177 63.7358 61.9823 107.223 62.2531 128.591L114.642 128.265Z" fill="#EEEEEE" stroke="black" stroke-width="1.64486" stroke-linejoin="round"/>
<path d="M159.997 81.3722L147.895 66.603L107.116 95.1333L93.9362 68.6039L76.8699 95.1331C76.8699 95.1331 95.3584 123.848 104.75 123.014C121.866 121.493 159.997 81.3722 159.997 81.3722Z" fill="#EEEEEE"/>
<path d="M94.8392 70.5397L107.001 94.3189L147.894 66.6035L159.997 81.3727C159.997 81.3727 124.051 121.245 103.045 123.111C96.4339 123.699 77.1728 94.8459 77.1728 94.8459" stroke="black" stroke-width="1.64486"/>
<path d="M151.918 63.938L147.125 67.0145L159.158 82.2598L162.942 79.1937C166.969 75.9317 167.607 70.0309 164.371 65.9837C161.356 62.2139 155.981 61.3308 151.918 63.938Z" fill="#F5B9AB" stroke="black" stroke-width="1.64486" stroke-linejoin="round"/>
<path d="M144.369 231.606L123.675 242.395L127.235 255.877L154.866 238.861L146.736 239.965L144.369 231.606Z" fill="#EEEEEE" stroke="black" stroke-width="1.39887" stroke-linejoin="round"/>
</svg>
