<svg width="535" height="580" viewBox="0 0 535 580" fill="none" xmlns="http://www.w3.org/2000/svg">
<ellipse cx="174" cy="568" rx="174" ry="12" fill="black" fill-opacity="0.5"/>
<path d="M184.862 414.09C183.604 414.284 182.124 414.386 181.824 415.945C181.592 417.153 181.68 418.396 182.376 419.444C183.565 421.234 185.331 422.279 187.459 421.91C189.361 421.58 191.974 419.787 191.974 417.559C191.974 416.303 191.104 415.039 190.385 414.099C189.614 413.092 188.948 412.032 187.977 411.208C186.668 410.097 185.611 409.988 184.433 411.298C183.789 412.015 183.18 412.993 182.898 413.932C182.759 414.395 182.861 414.766 182.861 415.23C182.861 415.848 182.751 414.936 182.861 414.63" stroke="#00ADB5" stroke-opacity="0.5" stroke-linecap="round" stroke-linejoin="round"/>
<path d="M191.381 417.63C192.452 418.619 193.359 419.513 195.252 419.561C196.577 419.595 197.902 419.251 199.144 418.88C200.033 418.615 202.884 417.21 200.574 417.097" stroke="#00ADB5" stroke-opacity="0.5" stroke-linecap="round" stroke-linejoin="round"/>
<path d="M202.42 409.003C201.007 410.626 199.058 413.807 199.79 416.245C200.047 417.102 200.421 417.679 200.905 418.412C201.879 419.885 203.389 419.426 204.758 419.041C205.75 418.762 206.93 417.883 207.31 416.883C207.834 415.503 206.741 413.345 205.828 412.395C204.808 411.334 204 410.043 202.864 409.114C202.562 408.867 202.333 408.599 201.938 408.69C201.495 408.793 201.313 409.234 201.901 409.234" stroke="#00ADB5" stroke-opacity="0.5" stroke-linecap="round" stroke-linejoin="round"/>
<path d="M302.288 186.582C301.03 186.776 299.55 186.878 299.25 188.437C299.018 189.645 299.106 190.888 299.802 191.936C300.991 193.726 302.757 194.771 304.885 194.402C306.787 194.072 309.4 192.279 309.4 190.051C309.4 188.795 308.531 187.531 307.811 186.591C307.04 185.583 306.374 184.524 305.404 183.7C304.094 182.589 303.037 182.48 301.86 183.79C301.216 184.507 300.606 185.485 300.325 186.424C300.186 186.887 300.287 187.258 300.287 187.722C300.287 188.34 300.177 187.428 300.287 187.122" stroke="#00ADB5" stroke-opacity="0.5" stroke-linecap="round" stroke-linejoin="round"/>
<path d="M308.807 190.122C309.878 191.11 310.785 192.005 312.678 192.053C314.003 192.087 315.328 191.743 316.57 191.372C317.459 191.107 320.31 189.702 318 189.589" stroke="#00ADB5" stroke-opacity="0.5" stroke-linecap="round" stroke-linejoin="round"/>
<path d="M319.846 181.495C318.433 183.118 316.484 186.298 317.216 188.737C317.473 189.594 317.847 190.171 318.331 190.903C319.305 192.377 320.815 191.918 322.184 191.533C323.176 191.254 324.356 190.375 324.736 189.375C325.26 187.994 324.167 185.837 323.254 184.887C322.234 183.826 321.427 182.535 320.291 181.606C319.988 181.359 319.759 181.091 319.364 181.182C318.921 181.285 318.739 181.726 319.327 181.726" stroke="#00ADB5" stroke-opacity="0.5" stroke-linecap="round" stroke-linejoin="round"/>
<path d="M193.933 139.395C201.186 135.8 207.049 129.855 212.945 124.249C217.579 119.843 222.438 115.49 227.552 111.688C228.561 110.937 229.987 109.428 231.351 110.071C232.702 110.709 233.482 112.445 234.55 113.473C237.181 116.005 239.546 119.099 241.709 122.074C244.091 125.349 240.52 127.162 238.312 129.306C235.805 131.742 233.411 134.254 230.672 136.403C228.068 138.446 225.977 141.262 223.593 143.575C219.961 147.1 216.564 150.853 212.943 154.381C210.787 156.482 208.313 158.196 206.237 160.371C205.51 161.133 204.837 162.141 203.998 162.775C203.324 163.285 202.391 161.325 202.152 160.956C200.248 158.026 197.298 156.022 195.434 152.957C194.262 151.03 193.473 148.652 192.07 146.892C191.4 146.052 189.726 144.161 190.459 142.934C191.208 141.681 193.335 141.081 194.496 140.184C195.4 139.484 196.499 138.621 197.529 138.134C198.277 137.781 199.011 137.154 199.68 136.672C201.441 135.402 199.575 135.945 198.384 136.417" stroke="#00ADB5" stroke-opacity="0.5" stroke-linecap="round" stroke-linejoin="round"/>
<path d="M195.041 145.148C199.457 147.992 203.417 152.108 206.864 156.167C206.952 156.27 207.791 156.878 207.663 157.103C207.416 157.538 204.55 155.575 204.276 155.379" stroke="#00ADB5" stroke-opacity="0.5" stroke-linecap="round" stroke-linejoin="round"/>
<path d="M199.419 141.036C202.998 142.103 205.132 144.132 208.022 146.303C209.309 147.27 210.621 148.143 211.776 149.281C212.319 149.815 212.705 150.518 213.207 151.094C213.894 151.883 211.088 150.178 210.757 149.981" stroke="#00ADB5" stroke-opacity="0.5" stroke-linecap="round" stroke-linejoin="round"/>
<path d="M204.62 137.849C207.125 140.201 209.643 142.521 212.227 144.779C213.208 145.636 214.323 146.423 215.17 147.434C216.675 149.227 214.704 146.9 214.035 146.243" stroke="#00ADB5" stroke-opacity="0.5" stroke-linecap="round" stroke-linejoin="round"/>
<path d="M208.13 135.606C209.988 136.781 211.929 137.92 213.502 139.505C214.148 140.156 214.683 140.922 215.373 141.524C216.223 142.266 216.968 143.132 217.823 143.853C219.042 144.88 219.225 145.18 217.778 143.891" stroke="#00ADB5" stroke-opacity="0.5" stroke-linecap="round" stroke-linejoin="round"/>
<path d="M212.655 132.154C214.705 133.824 216.602 135.519 218.316 137.555C219.076 138.457 219.687 139.498 220.651 140.19C221.534 140.824 222.152 141.007 221.119 139.977" stroke="#00ADB5" stroke-opacity="0.5" stroke-linecap="round" stroke-linejoin="round"/>
<path d="M217.011 128.637C218.816 130.048 220.595 131.336 222.037 133.154C222.697 133.986 223.218 134.942 223.955 135.709C225.452 137.268 224.423 136.482 223.34 135.424" stroke="#00ADB5" stroke-opacity="0.5" stroke-linecap="round" stroke-linejoin="round"/>
<path d="M221.029 124.987C223.563 127.509 225.685 130.463 228.224 132.955C229.933 134.632 227.484 131.944 227.083 131.466" stroke="#00ADB5" stroke-opacity="0.5" stroke-linecap="round" stroke-linejoin="round"/>
<path d="M225.934 122.085C228.067 121.179 230.28 120.099 231.426 117.885C231.742 117.274 232.149 116.742 232.279 116.054C232.457 115.109 232.423 115.515 231.749 116.126" stroke="#00ADB5" stroke-opacity="0.5" stroke-linecap="round" stroke-linejoin="round"/>
<path d="M229.368 125.133C231.059 123.5 232.949 121.716 234.189 119.644C234.807 118.61 235.984 117.348 234.338 118.844" stroke="#00ADB5" stroke-opacity="0.5" stroke-linecap="round" stroke-linejoin="round"/>
<path d="M234.79 128.555C236.33 126.813 237.701 125.192 239.12 123.371C239.578 122.782 240.974 122.018 239.294 122.485" stroke="#00ADB5" stroke-opacity="0.5" stroke-linecap="round" stroke-linejoin="round"/>
<path d="M233.564 127.675C235.176 126.237 237 124.562 238.278 122.747C238.619 122.262 238.881 121.723 239.194 121.22C239.716 120.377 239.75 120.661 238.956 120.748" stroke="#00ADB5" stroke-opacity="0.5" stroke-linecap="round" stroke-linejoin="round"/>
<path d="M199.395 148.053C207.43 144.657 209.412 135.44 215.96 130.228C216.756 129.594 217.403 128.889 218.332 128.45C218.953 128.157 219.72 128.016 220.286 127.641C220.63 127.412 223.494 125.135 221.504 126.076" stroke="#00ADB5" stroke-opacity="0.5" stroke-linecap="round" stroke-linejoin="round"/>
<path d="M195.654 145.588C196.556 144.447 197.356 143.471 198.5 142.646C198.688 142.51 198.977 142.488 199.132 142.307C199.437 141.949 199.9 141.425 200.018 140.964C200.482 139.145 202.749 139.481 203.953 138.569C205.098 137.702 206.2 136.823 207.368 135.966C208.654 135.022 209.249 134.194 210.282 132.984C211.231 131.872 212.152 130.748 213.156 129.696C213.978 128.835 215.269 128.052 215.792 126.95C216.382 125.707 217.89 124.284 219.248 124.514C219.715 124.594 223.141 126.66 220.902 125.339" stroke="#00ADB5" stroke-opacity="0.5" stroke-linecap="round" stroke-linejoin="round"/>
<path d="M202.925 150.033C208.962 146.72 212.313 139.495 216.391 134.037C217.893 132.027 220.04 130.691 221.612 128.716C222.285 127.871 223.77 126.974 222.043 126.989" stroke="#00ADB5" stroke-opacity="0.5" stroke-linecap="round" stroke-linejoin="round"/>
<path d="M205.08 152.08C210.551 148.58 214.054 142.069 218.035 136.91C219.845 134.562 221.593 132.166 223.426 129.837C224.262 128.776 225.719 128.113 223.849 129.2" stroke="#00ADB5" stroke-opacity="0.5" stroke-linecap="round" stroke-linejoin="round"/>
<path d="M207.236 155.732C210.649 152.268 213.406 148.53 216.199 144.523C217.897 142.087 219.366 139.348 221.36 137.155C222.504 135.896 223.385 134.422 224.424 133.088C224.843 132.55 225.131 131.924 225.562 131.391C226.53 130.19 225.855 131.276 225.18 131.928" stroke="#00ADB5" stroke-opacity="0.5" stroke-linecap="round" stroke-linejoin="round"/>
<path d="M208.038 157.25C209.737 155.518 212.226 153.852 213.36 151.605C213.771 150.79 214.789 148.821 215.504 148.322C216.447 147.662 216.897 146.259 217.584 145.377C218.3 144.458 219 143.561 219.777 142.687C220.505 141.867 220.738 140.428 221.639 139.723C222.643 138.937 223.132 137.72 223.933 136.782C224.626 135.97 225.945 135.129 226.805 134.508C227.282 134.165 227.615 133.696 228.155 133.441C229.251 132.923 228.54 133.188 227.537 133.149" stroke="#00ADB5" stroke-opacity="0.5" stroke-linecap="round" stroke-linejoin="round"/>
<path d="M225.796 122.734C227.202 123.119 228.935 123.384 230.215 124.181C231.042 124.695 231.761 125.211 230.256 124.275" stroke="#00ADB5" stroke-opacity="0.5" stroke-linecap="round" stroke-linejoin="round"/>
<path d="M227.256 120.293C229.26 120.838 230.677 121.449 232.312 122.558C233.381 123.283 233.209 123.082 232.096 122.384" stroke="#00ADB5" stroke-opacity="0.5" stroke-linecap="round" stroke-linejoin="round"/>
<path d="M229.688 117.83C231.409 118.837 233.079 119.982 234.859 120.859C235.906 121.375 235.357 121.339 234.549 120.933" stroke="#00ADB5" stroke-opacity="0.5" stroke-linecap="round" stroke-linejoin="round"/>
<path d="M231.073 115.862C232.883 116.719 234.552 117.573 236.218 118.652C236.978 119.144 236.289 119.176 235.712 118.778" stroke="#00ADB5" stroke-opacity="0.5" stroke-linecap="round" stroke-linejoin="round"/>
<path d="M226.684 121.876C228.052 120.184 229.424 118.581 230.669 116.847C231.023 116.355 233.178 113.612 232.246 115.016" stroke="#00ADB5" stroke-opacity="0.5" stroke-linecap="round" stroke-linejoin="round"/>
<path d="M228.121 124.846C229.9 123.209 232.465 121.027 233.039 118.582C233.208 117.862 233.575 117.143 234.112 116.647C234.657 116.145 235.227 115.919 234.413 116.765" stroke="#00ADB5" stroke-opacity="0.5" stroke-linecap="round" stroke-linejoin="round"/>
<path d="M226.694 124.791C228.591 122.664 230.213 121.235 231.285 118.616C231.563 117.936 231.883 117.372 232.34 116.836C232.824 116.269 233.519 115.738 232.584 116.753" stroke="#00ADB5" stroke-opacity="0.5" stroke-linecap="round" stroke-linejoin="round"/>
<path d="M233.744 125.838C234.618 126.414 235.494 126.948 236.402 127.428C236.777 127.626 236.313 127.243 236.153 127.18" stroke="#00ADB5" stroke-opacity="0.5" stroke-linecap="round" stroke-linejoin="round"/>
<path d="M235.447 122.99C235.506 123.042 238.94 126.105 238.331 125.422" stroke="#00ADB5" stroke-opacity="0.5" stroke-linecap="round" stroke-linejoin="round"/>
<path d="M237.487 121.88C238.245 122.639 240.565 124.857 239.748 124.168" stroke="#00ADB5" stroke-opacity="0.5" stroke-linecap="round" stroke-linejoin="round"/>
<path d="M232.729 127.047C233.984 125.831 236.738 123.42 237.413 121.55C237.679 120.813 238.897 119.866 237.751 120.879" stroke="#00ADB5" stroke-opacity="0.5" stroke-linecap="round" stroke-linejoin="round"/>
<path d="M232.887 127.41C233.006 127.51 235.408 130.201 235.92 128.896C236.182 128.23 236.522 127.362 237.163 126.995C238.289 126.351 238.496 124.322 239.648 123.778C240.954 123.16 240.832 122.125 239.616 121.758C239.138 121.614 239.515 120.633 239.018 120.71C238.564 120.781 238.323 120.606 237.815 120.703" stroke="#00ADB5" stroke-opacity="0.5" stroke-linecap="round" stroke-linejoin="round"/>
<path d="M225.638 122.371C226.462 124.009 226.618 124.602 227.947 125.285C228.305 125.47 228.774 125.214 229.046 125.358C229.585 125.642 230.649 125.648 231.051 125.132C231.86 124.093 232.157 123.423 233.396 122.791C234.178 122.393 234.806 121.453 235.168 120.673C235.565 119.816 236.281 119.171 236.701 118.311C236.879 117.945 235.437 117.002 235.424 116.368C235.42 116.188 233.708 116.183 233.423 116.033C233.078 115.85 232.919 115.593 232.754 115.214C232.512 114.659 232.083 115.348 231.433 115.4" stroke="#00ADB5" stroke-opacity="0.5" stroke-linecap="round" stroke-linejoin="round"/>
<path d="M197.114 143.147C199.059 143.916 200.756 144.908 202.508 146.006C204.028 146.96 205.747 147.467 207.258 148.391C208.334 149.049 209.45 150.551 210.244 151.537C210.509 151.866 210.706 152.173 210.894 152.544C211.324 153.394 210.876 151.339 210.831 151.114" stroke="#00ADB5" stroke-opacity="0.5" stroke-linecap="round" stroke-linejoin="round"/>
<path d="M215.901 127.701C216.441 128.291 218.625 131.545 218.194 129.099" stroke="#00ADB5" stroke-opacity="0.5" stroke-linecap="round" stroke-linejoin="round"/>
<path d="M220.398 353.572C220.629 354.811 221.218 355.616 221.674 356.743C221.985 357.511 222.566 358.106 222.889 358.859C223.238 359.672 223.761 360.628 224.248 361.352C224.666 361.972 224.94 362.56 225.466 363.109C226.398 364.077 227.102 365.232 228.038 366.187C229.397 367.575 231.7 369.386 233.681 369.272C234.318 369.235 235.022 369.44 235.647 369.342C236.182 369.258 236.832 369.23 237.369 369.326C238.251 369.484 239.207 369.325 240.051 369.515C240.506 369.618 241.002 369.468 241.462 369.557C242.06 369.672 242.76 369.701 243.369 369.701C245.363 369.701 247.351 369.688 249.339 369.426C250.416 369.283 251.484 369.655 252.55 369.458C253.551 369.272 254.884 369.464 255.825 369.035C256.982 368.508 258.133 367.68 259.027 366.75C259.475 366.284 259.816 365.727 260.119 365.15C260.518 364.393 260.739 363.576 261.14 362.82C262.537 360.186 263.334 357.253 264.465 354.507C264.731 353.859 265.17 353.335 265.489 352.737C265.57 352.586 265.606 352.392 265.738 352.247C266.231 351.704 265.287 351.646 264.852 351.441" stroke="#00ADB5" stroke-opacity="0.5" stroke-linecap="round" stroke-linejoin="round"/>
<path d="M220.176 353.687C221.166 352.341 222.005 351.351 223.443 350.59C224.646 349.952 225.895 349.195 226.983 348.362C228.654 347.084 230.954 346.514 232.989 346.129C235.204 345.71 237.384 345.22 239.639 345.22C240.336 345.22 241.026 345.438 241.724 345.45C242.559 345.465 243.396 345.492 244.227 345.566C245.503 345.679 246.813 345.652 248.09 345.681C249.873 345.721 251.579 346.681 253.362 346.83C254.422 346.918 255.659 347.083 256.69 347.383C257.076 347.496 257.516 347.572 257.877 347.754C258.325 347.981 258.64 348.365 259.052 348.631C260.382 349.492 261.868 349.897 263.305 350.551C263.746 350.752 264.503 351.095 264.991 351.095C265.662 351.095 265.627 352.385 265.627 351.095" stroke="#00ADB5" stroke-opacity="0.5" stroke-linecap="round" stroke-linejoin="round"/>
<path d="M265.516 351.902C264.695 353.047 264.11 353.483 262.945 354.152C262.031 354.676 261.018 355.048 259.993 355.243C259.036 355.425 257.991 355.568 257.022 355.649C256.215 355.716 255.392 355.619 254.567 355.716C252.704 355.937 250.823 356.437 249.025 356.984C246.459 357.764 243.981 357.845 241.33 357.995C238.437 358.158 235.535 357.928 232.7 357.316C231.744 357.11 230.733 357.295 229.76 357.256C228.688 357.212 227.637 356.905 226.629 356.542C226.204 356.389 225.813 356.155 225.368 356.049C224.846 355.926 224.317 355.974 223.799 355.844C223.078 355.663 222.237 355.336 221.628 354.897C221.363 354.706 220.965 354.549 220.757 354.26C220.697 354.176 220.619 353.989 220.619 353.889C220.619 353.651 220.431 353.711 220.73 353.918" stroke="#00ADB5" stroke-opacity="0.5" stroke-linecap="round" stroke-linejoin="round"/>
<path d="M241.712 363.595C242.385 363.517 243.276 363.53 242.997 362.629C242.908 362.339 242.682 362.308 242.444 362.225C241.732 361.978 240.457 362.457 240.189 363.23C239.709 364.618 240.618 366.118 242.047 365.637C242.436 365.506 243.125 365.22 243.372 364.853C243.669 364.412 243.224 364.542 242.93 364.113" stroke="#00ADB5" stroke-opacity="0.5" stroke-linecap="round" stroke-linejoin="round"/>
<path d="M239.663 362.097C240.737 361.649 241.287 361.464 242.373 361.464C242.811 361.464 243.03 361.432 243.416 361.694C244.053 362.128 244.272 362.952 244.206 363.678C244.15 364.291 243.955 365.131 243.748 365.713C243.594 366.146 243.212 366.221 242.822 366.302C242.465 366.376 241.688 366.169 241.407 366.331C241.109 366.503 240.198 366.561 239.968 366.241C239.756 365.947 239.528 365.82 239.374 365.464C239.227 365.123 239.16 364.798 239.042 364.459C238.879 363.994 238.587 362.723 239.193 362.443C239.548 362.279 239.7 362.18 240.106 362.18C240.222 362.18 240.32 362.27 240.438 362.27C240.608 362.27 240.11 362.155 239.94 362.155" stroke="#00ADB5" stroke-opacity="0.5" stroke-linecap="round" stroke-linejoin="round"/>
<path d="M241.601 357.489C242.382 356.439 243.094 355.355 243.901 354.334C244.335 353.785 244.874 353.313 245.341 352.788C246.679 351.285 248.042 349.639 249.062 347.882C250.067 346.152 251.439 344.267 252.928 342.967C253.715 342.28 254.418 341.522 255.103 340.73C255.767 339.962 256.073 338.889 256.702 338.077C257.189 337.449 260.379 333.174 260.934 335.773C261.152 336.795 260.194 337.509 259.593 338.135C258.911 338.845 258.225 339.747 257.643 340.554C257.082 341.332 256.401 342.016 255.856 342.801C255.115 343.868 253.767 344.632 253.227 345.841C252.781 346.838 252.041 347.64 251.486 348.564C250.716 349.845 249.815 350.915 248.908 352.087C248.19 353.016 247.065 353.78 246.556 354.84C246.13 355.724 245.377 356.097 244.689 356.67C244.389 356.919 244.025 357.058 243.76 357.403C243.672 357.518 243.514 357.65 243.431 357.521C243.384 357.448 243.204 357.613 243.237 357.694C243.355 357.981 243.068 357.005 243.04 356.913" stroke="#00ADB5" stroke-opacity="0.5" stroke-linecap="round" stroke-linejoin="round"/>
<path d="M241.158 357.777C241.37 357.889 242.708 358.946 242.708 358.094C242.708 357.836 243.026 357.406 243.139 357.144C243.224 356.945 242.459 357.135 242.345 357.288C242.196 357.486 241.908 357.648 242.376 357.662C242.735 357.673 243.016 357.512 243.289 357.291C243.368 357.227 244.424 357.401 243.483 357.374C242.983 357.359 242.496 357.374 242.016 357.374C241.601 357.374 242.442 357.259 242.564 357.259C242.66 357.259 241.862 357.753 241.724 357.592C241.69 357.552 241.632 357.444 241.767 357.374" stroke="#00ADB5" stroke-opacity="0.5" stroke-linecap="round" stroke-linejoin="round"/>
<path d="M223.553 353.515C223.615 353.549 225.594 354.627 225.602 354.494C225.611 354.333 225.5 354.192 225.577 354.033C225.912 353.337 226.345 353.671 226.921 353.94C227.37 354.151 226.688 351.82 228.044 352.804C228.744 353.313 228.931 353.232 228.816 352.379C228.728 351.733 228.943 351.731 229.477 351.799C229.84 351.846 230.1 351.928 230.307 351.569C230.559 351.133 230.842 350.885 231.356 351.073C231.782 351.229 232.161 351.668 232.454 351.108C232.583 350.862 232.474 350.125 232.881 350.267C233.137 350.355 233.473 350.702 233.764 350.593C233.985 350.51 234.154 349.799 234.404 349.911C234.664 350.029 234.93 350.543 235.259 350.42C235.418 350.361 235.712 349.821 235.4 349.886" stroke="#00ADB5" stroke-opacity="0.5" stroke-linecap="round" stroke-linejoin="round"/>
<path d="M231.359 352.478C232.045 353.059 234.615 356.162 235.37 353.844C235.505 353.429 235.526 352.607 235.905 353.287C236.217 353.848 236.687 354.237 237.197 353.707C237.535 353.355 237.685 352.758 238.169 352.574C238.612 352.405 238.938 353.273 239.307 352.766C239.604 352.357 239.46 351.654 239.024 351.409C238.88 351.328 238.84 351.606 238.778 351.671" stroke="#00ADB5" stroke-opacity="0.5" stroke-linecap="round" stroke-linejoin="round"/>
<path d="M237.283 348.907C238.352 348.715 239.699 348.326 240.512 349.323C240.889 349.784 240.853 350.374 240.604 350.897C240.422 351.279 239.933 351.47 239.62 351.095C239.364 350.788 239.892 350.281 240.081 350.094C240.729 349.451 241.69 350.48 241.893 351.179C242.062 351.762 240.53 353.114 240.715 352.535" stroke="#00ADB5" stroke-opacity="0.5" stroke-linecap="round" stroke-linejoin="round"/>
<path d="M255.275 350.865C255.593 350.751 257.635 350.067 257.243 351.198C257.042 351.778 256.272 352.089 255.767 352.279C255.528 352.369 254.911 352.354 255.312 351.991C255.659 351.678 256.148 351.531 256.603 351.569C258.38 351.719 255.896 353.843 255.385 354.136C254.394 354.705 253.046 355.303 252.008 354.609" stroke="#00ADB5" stroke-opacity="0.5" stroke-linecap="round" stroke-linejoin="round"/>
<path d="M244.369 347.466C244.79 348.18 245.297 348.896 245.657 349.646C245.781 349.904 245.245 349.243 245.119 348.986C245.086 348.918 244.855 348.162 244.833 348.167C244.564 348.23 244.5 349.514 244.427 349.751C244.082 350.873 243.23 350.443 242.394 350.359C241.382 350.258 240.93 351.296 240.37 351.959C239.923 352.49 239.747 352.653 240.051 353.284C240.296 353.795 240.398 354.291 240.051 354.753C239.779 355.114 239.44 355.342 239.113 355.64C238.813 355.912 239.243 355.867 239.186 355.704C239.033 355.256 238.085 355.349 237.775 355.371C236.623 355.45 235.449 355.149 234.318 355.223C233.717 355.263 233.151 355.612 232.555 355.704C231.95 355.797 232.75 356.343 232.977 356.5C233.367 356.771 232.213 355.925 231.79 355.716C231.079 355.366 230.423 355.095 230.055 354.321C229.686 353.545 229.362 353.016 228.739 352.446C228.524 352.249 228.498 351.951 228.603 351.684C228.846 351.067 229.385 350.565 229.92 350.231" stroke="#00ADB5" stroke-opacity="0.5" stroke-linecap="round" stroke-linejoin="round"/>
<path d="M244.258 349.771C242.87 348.763 241.725 348.329 240.094 348.1C239.52 348.02 238.908 347.606 238.534 347.15C238.203 346.744 238.391 346.852 237.999 347.402C237.465 348.155 237.068 347.479 236.385 347.678C235.338 347.981 234.439 348.994 233.377 349.182C233.086 349.233 233.156 348.727 232.792 348.945C232.18 349.312 231.712 349.66 230.996 349.777C230.563 349.848 229.743 350.144 229.809 350.692" stroke="#00ADB5" stroke-opacity="0.5" stroke-linecap="round" stroke-linejoin="round"/>
<path d="M253.669 349.771C255.008 349.905 256.365 349.887 257.698 350.036C258.168 350.088 258.408 350.286 258.738 350.606C259.036 350.894 259.501 351.574 259.928 351.611C260.544 351.664 260.863 351.398 261.438 351.211C261.785 351.098 262.89 351.211 262.527 351.211" stroke="#00ADB5" stroke-opacity="0.5" stroke-linecap="round" stroke-linejoin="round"/>
<path d="M252.673 351.326C251.234 352.313 250.465 353.81 248.924 354.708C248.619 354.886 247.685 355.231 247.755 355.816C247.806 356.239 250.925 354.914 251.4 354.667" stroke="#00ADB5" stroke-opacity="0.5" stroke-linecap="round" stroke-linejoin="round"/>
<path d="M258.043 352.708C258.826 353.314 259.5 354.181 260.479 353.873C260.744 353.79 261.298 353.757 261.475 353.572" stroke="#00ADB5" stroke-opacity="0.5" stroke-linecap="round" stroke-linejoin="round"/>
<path d="M451.512 327.597C447.469 328.404 444.53 329.619 441.967 333.047C440.344 335.219 440.7 338.638 441.764 340.941C443.517 344.736 447.827 346.879 451.715 347.065C456.245 347.281 462.542 345.896 463.471 340.275C463.969 337.262 461.202 334.413 459.907 331.942C458.853 329.931 457.266 327.221 455.047 326.371C454.142 326.024 452.04 326.144 451.381 327.082C451.086 327.501 450.708 327.944 450.493 328.414C450.32 328.796 450.506 327.444 450.464 327.052" stroke="#00ADB5" stroke-opacity="0.5" stroke-linecap="round" stroke-linejoin="round"/>
<path d="M453.214 337.951C452.123 338.535 450.353 338.921 451.308 340.199C451.526 340.491 451.836 340.475 452.101 340.199C452.327 339.964 453.468 338.728 452.625 338.436C450.906 337.84 451.535 341.407 452.763 339.829C453.422 338.981 452.499 338.146 451.672 338.663C450.686 339.278 451.466 340.353 452.239 339.42C452.822 338.716 452.357 338.177 451.723 338.837C451.155 339.428 451.732 340.37 452.29 339.571C452.863 338.752 452.21 338.058 451.519 338.776C450.719 339.608 451.585 339.521 452.152 338.973C452.723 338.421 451.71 338.502 451.381 338.935C450.617 339.941 451.814 339.798 452.006 338.935C452.29 337.668 451.033 340.58 451.643 338.36" stroke="#00ADB5" stroke-opacity="0.5" stroke-linecap="round" stroke-linejoin="round"/>
<path d="M448.762 333.728C449.925 335.325 451.117 336.839 452.094 338.436C452.364 338.878 452.148 339.322 452.297 339.314C452.848 339.282 453.413 339.178 454 339.178C455.343 339.178 456.4 338.496 457.695 338.496C459.263 338.496 461.566 338.073 458.975 336.725" stroke="#00ADB5" stroke-opacity="0.5" stroke-linecap="round" stroke-linejoin="round"/>
<path d="M447.452 327.461C447.208 326.172 446.012 323.05 448.238 323.381C449.036 323.5 449.572 324.359 450.042 324.902C451.264 326.315 451.134 328.021 449.155 328.142C448.636 328.174 447.906 329.243 447.321 328.482C446.659 327.621 447.335 327.679 447.452 326.643C447.529 325.965 447.104 326.022 446.921 325.356C446.781 324.846 447.072 324.287 447.19 323.918" stroke="#00ADB5" stroke-opacity="0.5" stroke-linecap="round" stroke-linejoin="round"/>
<path d="M448.238 325.962C448.226 326.287 447.744 329.22 448.769 328.74C449.112 328.579 449.409 328.345 449.548 327.975C449.682 327.617 449.539 327.402 449.387 327.052C448.997 326.149 447.864 324.745 448.209 326.779C448.427 328.063 449.804 327.763 449.911 326.537C449.993 325.601 448.859 324.347 448.136 325.417C447.625 326.174 448.535 327.842 449.067 326.673C449.338 326.08 448.692 324.571 448.005 325.311C447.302 326.069 448.359 327.669 449.053 327.022C449.739 326.382 449.273 324.43 448.529 325.175C447.849 325.856 448.869 327.212 449.387 326.174C449.965 325.016 448.692 324.143 448.296 325.356C447.943 326.439 449.045 327.604 449.3 326.128C449.494 325.005 447.511 324.408 447.511 325.75C447.511 326.987 448.573 326.86 448.573 325.735C448.573 324.562 447.438 324.826 447.911 325.81C448.384 326.795 449.018 325.048 448.485 324.493C447.864 323.847 447.041 324.847 447.773 325.47C448.271 325.895 448.954 324.132 448.114 323.805C447.39 323.522 447.791 325.061 448.042 324.713C448.431 324.173 447.834 323.811 448.245 323.918C448.608 324.012 449.488 324.214 449.737 324.546C449.932 324.808 450.726 326.265 450.726 326.643C450.726 327.8 449.025 328.424 448.049 328.134C447.349 327.926 447.141 328.441 447.387 328.27C447.983 327.857 448.107 326.779 448.107 327.188" stroke="#00ADB5" stroke-opacity="0.5" stroke-linecap="round" stroke-linejoin="round"/>
<path d="M448.107 346.943C447.433 348.432 446.835 349.927 446.041 351.334C445.863 351.65 445.528 352.297 445.488 352.666C445.382 353.66 446.342 350.295 446.536 349.805" stroke="#00ADB5" stroke-opacity="0.5" stroke-linecap="round" stroke-linejoin="round"/>
<path d="M461.332 344.082C462.991 346.261 464.819 347.815 466.112 350.206C466.239 350.441 466.46 350.628 466.636 350.811C467.224 351.423 465.544 349.505 464.999 348.851" stroke="#00ADB5" stroke-opacity="0.5" stroke-linecap="round" stroke-linejoin="round"/>
<path d="M351.495 217.051C352.532 221.123 356.536 236.26 357.493 241.791C360.13 257.019 355.993 236.24 355.982 242.966" stroke="#00ADB5" stroke-opacity="0.5" stroke-width="2" stroke-linecap="round" stroke-linejoin="round"/>
<path d="M344.467 223.634C344.114 217.438 342.778 208.838 351.128 209.723C355.057 210.14 359.384 212.566 361.833 215.812C365.618 220.828 363.621 228.604 359.532 232.596C357.355 234.72 355.244 235.785 352.395 236.588C347.57 237.949 351.378 230.976 352.155 229.064" stroke="#00ADB5" stroke-opacity="0.5" stroke-width="2" stroke-linecap="round" stroke-linejoin="round"/>
<path d="M366.187 231.207C374.484 230.745 382.121 229.046 385.089 238.408C386.814 243.849 388.914 250.46 387.476 256.194C386.177 261.375 383.379 264.614 378.262 262.407C370.95 259.253 370.96 253.315 374.94 247.393C376.405 245.213 382.017 240.847 382.021 238.298" stroke="#00ADB5" stroke-opacity="0.5" stroke-width="2" stroke-linecap="round" stroke-linejoin="round"/>
<path d="M381.141 221.104C380.858 223.375 380.854 239.444 376.674 239.598C375.89 239.627 375.232 240.051 374.548 240.406C371.916 241.769 373.517 240.542 374.499 239.123C376.724 235.909 381.231 237.097 383.488 232.831C385.938 228.199 387.067 225.921 383.554 222.338C381.092 219.826 382.173 215.555 380.235 221.573" stroke="#00ADB5" stroke-opacity="0.5" stroke-width="2" stroke-linecap="round" stroke-linejoin="round"/>
<path d="M393.387 206.522C396.593 214.033 399.524 223.815 404.668 230.354C406.028 232.082 406.791 230.578 406.77 229.232C406.744 227.532 406.283 225.816 405.809 224.206" stroke="#00ADB5" stroke-opacity="0.5" stroke-width="2" stroke-linecap="round" stroke-linejoin="round"/>
<path d="M384.076 226.055C389.164 223.972 401.657 221.864 403.786 215.253" stroke="#00ADB5" stroke-opacity="0.5" stroke-width="2" stroke-linecap="round" stroke-linejoin="round"/>
<path d="M399.724 206.768C421.776 246.902 400.292 218.694 411.5 211.353C418.304 206.898 418.872 227.897 420.757 218.814" stroke="#00ADB5" stroke-opacity="0.5" stroke-width="2" stroke-linecap="round" stroke-linejoin="round"/>
<path d="M419.419 205.387C420.219 207.876 422.906 224.307 428.501 220.554C431.002 218.875 433.916 215.675 434.398 212.529C434.916 209.154 432.889 200.579 428.303 201.502C426.211 201.924 422.711 202.025 421.345 204.095C420.025 206.095 419.193 210.779 420.777 205.86" stroke="#00ADB5" stroke-opacity="0.5" stroke-width="2" stroke-linecap="round" stroke-linejoin="round"/>
<path d="M435.044 201.409C441.298 197.231 448.648 195.86 449.6 205.698C449.719 206.933 449.741 208.488 450.285 209.625C450.916 210.943 449.62 206.403 448.392 205.67" stroke="#00ADB5" stroke-opacity="0.5" stroke-width="2" stroke-linecap="round" stroke-linejoin="round"/>
<path d="M434.585 205.176C434.868 210.319 434.162 217.286 436.471 222.111C436.55 222.275 437.099 223.534 436.822 222.844C436.275 221.479 436.048 220.553 435.017 219.073" stroke="#00ADB5" stroke-opacity="0.5" stroke-width="2" stroke-linecap="round" stroke-linejoin="round"/>
<path d="M276.306 251.734C275.44 260.093 276.951 285.829 263.305 284.227C260.46 283.894 257.876 283.399 256.525 280.61C255.11 277.69 253.939 275.149 253.799 271.832C253.625 267.758 255.184 265.835 258.35 263.996C259.461 263.352 257.075 265.962 256.863 266.215C255.472 267.878 260.193 265.851 261.998 265.435" stroke="#00ADB5" stroke-opacity="0.5" stroke-width="2" stroke-linecap="round" stroke-linejoin="round"/>
<path d="M293.824 255.75C286.922 256.422 277.181 257.784 276.067 266.767C275.463 271.64 282.426 272.232 285.449 273.892C290.641 276.743 294.581 286.043 288.757 290.136C284.706 292.982 281.643 291.47 277.703 291.754C273.7 292.042 276.487 290.507 278.86 290.086" stroke="#00ADB5" stroke-opacity="0.5" stroke-width="2" stroke-linecap="round" stroke-linejoin="round"/>
<path d="M331.223 34.5734C330.67 40.3406 330.333 46.1668 329.649 51.9204C329.584 52.4739 329.06 54.6592 329.679 52.8924C330.132 51.6006 329.986 50.2544 330.713 49.0294C331.715 47.3422 336.241 40.9151 338.367 41.5652C342.628 42.8682 338.327 51.0911 337.107 53.4474C336.687 54.2601 335.54 56.0228 336.134 56.9342C336.925 58.1491 338.389 53.6592 338.451 53.5219" stroke="#00ADB5" stroke-opacity="0.5" stroke-width="2" stroke-linecap="round" stroke-linejoin="round"/>
<path d="M348.05 38.3603C347.546 40.9369 343.304 53.655 347.391 55.7616C348.544 56.3561 351.095 55.2339 351.888 54.2665C352.714 53.2591 352.282 51.7166 352.193 50.5474" stroke="#00ADB5" stroke-opacity="0.5" stroke-width="2" stroke-linecap="round" stroke-linejoin="round"/>
<path d="M339.642 38.6382C344.126 40.0256 348.737 40.9493 353.192 42.3807C354.244 42.7186 354.638 42.8716 355.204 43.8477C356.085 45.366 353.746 43.9791 353.342 43.5192" stroke="#00ADB5" stroke-opacity="0.5" stroke-width="2" stroke-linecap="round" stroke-linejoin="round"/>
<path d="M359.919 47.6529C358.89 50.8857 357.923 54.1591 356.748 57.3404C356.515 57.9729 356.479 58.2042 356.354 57.7211C356.232 57.2557 356.114 56.9815 356.313 56.49C357.368 53.878 359.832 50.1241 362.155 48.6652C364.664 47.0897 363.295 52.3816 362.958 53.4529C362.58 54.656 361.56 57.9535 362.72 54.7627C363.409 52.8638 364.993 48.1445 367.663 48.8314C369.28 49.2474 368.906 51.5219 368.621 52.7246C368.094 54.9425 367.57 57.1455 367.041 59.3708C366.268 62.6225 366.686 60.8665 367.25 58.4903" stroke="#00ADB5" stroke-opacity="0.5" stroke-width="2" stroke-linecap="round" stroke-linejoin="round"/>
<path d="M379.851 40.5746C378.24 46.6027 376.264 52.6134 374.876 58.7042C374.713 59.4185 374.358 62.0634 375.451 62.3784C376.49 62.6777 380.592 60.1129 379.59 59.2238" stroke="#00ADB5" stroke-opacity="0.5" stroke-width="2" stroke-linecap="round" stroke-linejoin="round"/>
<path d="M100.998 286.46C97.1892 293.989 93.3923 301.525 89.5729 309.048C88.4844 311.193 86.3357 317.753 86.0697 315.344C85.709 312.077 87.6274 307.504 88.4414 304.443C89.5902 300.122 91.9294 291.49 97.7583 291.522C102.158 291.547 107.105 298.26 107.787 302.448C108.269 305.406 109.67 302.066 111.571 301.174" stroke="#00ADB5" stroke-opacity="0.5" stroke-width="2" stroke-linecap="round" stroke-linejoin="round"/>
<path d="M112.805 310.581C115.365 316.775 119.138 327.246 126.908 321.485C130.479 318.838 128.704 314.308 125.18 312.869C116.542 309.343 105.658 319.189 103.504 327.282C101.35 335.374 109.852 337.855 115.701 338.654C118.937 339.096 118.211 336.218 120.996 335.216" stroke="#00ADB5" stroke-opacity="0.5" stroke-width="2" stroke-linecap="round" stroke-linejoin="round"/>
<path d="M134.317 331.997C127.607 329.082 118.718 326.483 114.936 335.405C113.114 339.705 121.271 340.21 123.69 340.091C128.311 339.865 138.6 328.735 135.133 331.922C132.091 334.719 129.013 338.02 127.762 342.15C126.954 344.818 127.882 350.711 130.854 346.641" stroke="#00ADB5" stroke-opacity="0.5" stroke-width="2" stroke-linecap="round" stroke-linejoin="round"/>
<path d="M160.41 337.579C150.671 338.551 139.129 339.06 135.674 350.445C133.976 356.041 137.961 359.933 142.762 361.575C146.118 362.723 149.538 360.231 151.574 357.703" stroke="#00ADB5" stroke-opacity="0.5" stroke-width="2" stroke-linecap="round" stroke-linejoin="round"/>
<path d="M169.255 339.123C168.721 339.799 144.731 367.004 156.167 367.214C159.333 367.273 162.582 365.356 164.763 363.201" stroke="#00ADB5" stroke-opacity="0.5" stroke-width="2" stroke-linecap="round" stroke-linejoin="round"/>
<path d="M148.936 344.073C153.541 347.378 158.083 350.878 163.135 353.432C164.447 354.096 166.634 354.412 167.537 355.788C168.045 356.561 167.247 354.725 167.158 354.458" stroke="#00ADB5" stroke-opacity="0.5" stroke-width="2" stroke-linecap="round" stroke-linejoin="round"/>
<path d="M97.5584 126.255C101.424 133.133 113.699 153.199 108.716 147.15C105.53 143.283 103.111 138.151 101.091 133.576C98.9718 128.776 96.9818 120.211 105.058 120.645C111.99 121.019 114.757 128.384 115.976 134.421C116.514 137.084 116.651 139.153 117.799 141.575C118.973 144.052 119.038 134.509 119.485 132.033" stroke="#00ADB5" stroke-opacity="0.5" stroke-width="2" stroke-linecap="round" stroke-linejoin="round"/>
<path d="M122.532 112.267C122.747 113.307 126.089 137.092 130.938 132.518C132.98 130.592 133.429 125.844 133.691 123.243C134.51 115.114 131.21 114.11 125.725 112.39C123.109 111.569 122.572 111.606 121.854 114.409C120.378 120.164 122.704 118.547 125.684 115.347" stroke="#00ADB5" stroke-opacity="0.5" stroke-width="2" stroke-linecap="round" stroke-linejoin="round"/>
<path d="M143.619 105.557C140.924 110.282 137.488 115.84 139.384 121.627C140.17 124.028 141.999 123.393 143.28 122.042C145.301 119.909 146.355 116.404 146.243 113.475C146.027 107.861 142.647 103.057 139.101 99.0675C138.609 98.5145 134.13 94.6725 135.007 97.9711C136.582 103.896 140.967 109.595 144.023 114.745C149.059 123.232 150.603 119.936 152.866 111.969" stroke="#00ADB5" stroke-opacity="0.5" stroke-width="2" stroke-linecap="round" stroke-linejoin="round"/>
<path d="M153.344 107.026C155.017 108.649 168.212 118.456 168.622 109.757C168.659 108.968 167.692 108.721 167.373 108.049C166.552 106.316 165.191 105.172 164.451 104.263" stroke="#00ADB5" stroke-opacity="0.5" stroke-width="2" stroke-linecap="round" stroke-linejoin="round"/>
<path d="M154.445 112.921C149.22 105.782 141.922 98.3596 149.403 91.302C152.556 88.3283 159.096 90.6798 158.925 95.6483C158.846 97.9625 158.376 103.685 155.182 104.289C153.493 104.608 152.715 103.458 154.277 101.85" stroke="#00ADB5" stroke-opacity="0.5" stroke-width="2" stroke-linecap="round" stroke-linejoin="round"/>
<path d="M166.372 83.3129C169.75 85.5493 193.821 100.35 181.213 106.819C179.248 107.828 177.519 105.478 176.474 103.966C174.12 100.558 180.979 95.7227 181.266 92.1126" stroke="#00ADB5" stroke-opacity="0.5" stroke-width="2" stroke-linecap="round" stroke-linejoin="round"/>
<path d="M186.129 71.4142C184.163 73.0849 172.885 83.4619 181.754 85.4682C186.652 86.5765 191.282 81.4976 195.005 78.9626C201.002 74.8786 202.268 82.7372 200.62 87.1727C199.611 89.8891 191.186 98.7785 193.491 91.7114" stroke="#00ADB5" stroke-opacity="0.5" stroke-width="2" stroke-linecap="round" stroke-linejoin="round"/>
<path d="M252.691 457.65C245.188 461.578 235.357 468.742 243.468 478.247C247.359 482.807 254.541 480.939 259.665 480.412C261.104 480.264 265.076 481.705 263.995 480.705C261.656 478.542 259.973 478.681 259.271 475.029" stroke="#00ADB5" stroke-opacity="0.5" stroke-width="2" stroke-linecap="round" stroke-linejoin="round"/>
<path d="M274.961 455.016C274.961 460.771 274.91 464.891 280.585 467.129C283.036 468.096 284.575 468.983 285.225 471.84C285.96 475.069 283.795 479.747 281.232 481.553C278.064 483.786 274.083 484.565 270.519 483.045C267.466 481.743 270.84 480.204 272.431 478.715" stroke="#00ADB5" stroke-opacity="0.5" stroke-width="2" stroke-linecap="round" stroke-linejoin="round"/>
<path d="M299.762 448.697C298.767 452.71 294.279 463.443 298.272 467.597C299.883 469.274 303.005 468.343 304.992 468.826C306.97 469.307 308.667 470.882 309.885 472.513C311.815 475.094 309.978 479.006 307.748 480.822C304.289 483.639 299.347 482.402 295.319 482.402C293.121 482.402 294.623 482.24 295.713 480.822" stroke="#00ADB5" stroke-opacity="0.5" stroke-width="2" stroke-linecap="round" stroke-linejoin="round"/>
<path d="M291.037 398.752C294.936 397.204 302.169 394.74 305.94 391.964C309.921 389.034 305.753 388.192 303.634 388.892C300.045 390.079 297.877 393.99 296.661 397.436C293.458 406.507 303.646 416.761 312.211 415.722C320.126 414.761 321.229 410.729 322.418 404.545" stroke="#00ADB5" stroke-opacity="0.5" stroke-width="2" stroke-linecap="round" stroke-linejoin="round"/>
<path d="M327.479 394.012C326.593 395.515 318.169 413.561 315.838 405.072" stroke="#00ADB5" stroke-opacity="0.5" stroke-width="2" stroke-linecap="round" stroke-linejoin="round"/>
<path d="M311.789 394.539C315.343 399.482 323.929 417.156 332.541 416.658C333.79 416.586 332.133 411.583 332.035 410.865" stroke="#00ADB5" stroke-opacity="0.5" stroke-width="2" stroke-linecap="round" stroke-linejoin="round"/>
<path d="M335.072 394.539C337.035 406.506 340.968 442.674 338.727 430.76C337.572 424.617 327.023 391.374 336.309 392.754C340.336 393.353 350.616 399.466 347.922 405.072C346.408 408.224 337.02 409.324 341.145 407.178" stroke="#00ADB5" stroke-opacity="0.5" stroke-width="2" stroke-linecap="round" stroke-linejoin="round"/>
<path d="M354.306 402.965C355.556 409.736 356.76 416.502 357.849 423.299C358.035 424.463 357.785 423.504 357.455 422.861C355.384 418.821 352.55 411.623 352.646 407.091C352.738 402.797 358.416 399.869 361.392 402.965" stroke="#00ADB5" stroke-opacity="0.5" stroke-width="2" stroke-linecap="round" stroke-linejoin="round"/>
<path d="M370.502 410.865C370.371 415.821 373.827 433.172 382.031 428.127C383.207 427.404 386.107 425.638 386.193 424.031C386.239 423.174 384.74 422.978 384.168 422.978C382.664 422.978 382.288 421.037 381.638 419.818" stroke="#00ADB5" stroke-opacity="0.5" stroke-width="2" stroke-linecap="round" stroke-linejoin="round"/>
<path d="M367.971 412.445C372.405 407.673 377.391 401.099 381.328 409.607C382.481 412.098 382.079 415.099 381.131 417.594C379.6 421.625 374.115 423.215 375.564 417.185" stroke="#00ADB5" stroke-opacity="0.5" stroke-width="2" stroke-linecap="round" stroke-linejoin="round"/>
<path d="M395.303 402.965C398.773 408.733 412.802 424.281 403.599 431.375C400.654 433.644 398.732 433.634 395.416 433.51C390.735 433.336 393.208 432.102 394.797 428.244" stroke="#00ADB5" stroke-opacity="0.5" stroke-width="2" stroke-linecap="round" stroke-linejoin="round"/>
<path d="M416.561 400.859C415.514 402.178 401.98 415.792 410.207 417.243C413.239 417.778 416.026 415.867 418.811 417.799C423.836 421.285 422.646 426.01 418.024 428.975C415.714 430.458 413.136 431.235 410.713 432.457C409.343 433.148 410.803 431.147 410.994 430.351" stroke="#00ADB5" stroke-opacity="0.5" stroke-width="2" stroke-linecap="round" stroke-linejoin="round"/>
<path d="M404.92 395.066C403.745 395.964 391.091 403.271 392.885 407.705C395.149 413.299 395.897 406.413 396.316 404.019" stroke="#00ADB5" stroke-opacity="0.5" stroke-width="2" stroke-linecap="round" stroke-linejoin="round"/>
<path d="M93.8321 222.793C96.0863 217.263 95.1631 212.444 95.1631 206.712C95.1631 205.597 94.9686 202.201 96.0948 201.593C97.8707 200.634 99.5304 199.994 101.626 199.994C103.019 199.994 104.419 200.036 105.811 199.994C107.204 199.953 108.553 199.363 109.93 199.188C112.492 198.861 115.156 199.316 117.686 199.316C119.695 199.316 121.773 199.587 123.705 199.587C124.048 199.587 125.447 199.757 125.672 199.964C126.362 200.597 126.164 201.612 126.708 202.166" stroke="#00ADB5" stroke-opacity="0.5" stroke-linecap="round" stroke-linejoin="round"/>
<path d="M126.575 202.656C126.663 204.288 126.696 206.578 127.341 208.173C127.759 209.206 127.426 210.582 127.51 211.682C127.673 213.795 127.37 215.855 127.37 217.905C127.37 220.654 127.503 223.369 127.503 226.104C127.503 228.451 125.299 228.058 123.556 227.728C122.05 227.443 120.029 228.015 118.459 228.035C115.431 228.074 112.389 228.311 109.357 228.311C106.824 228.311 104.943 227.545 102.611 226.625C101.365 226.133 100.612 226.242 99.2746 226.242C98.0075 226.242 96.9655 226.036 95.6954 226.449C94.9523 226.69 93.6215 226.482 93.1988 225.69C92.6919 224.741 93.6996 224.329 93.6996 223.552C93.6996 222.9 93.6208 221.034 93.8321 222.793" stroke="#00ADB5" stroke-opacity="0.5" stroke-linecap="round" stroke-linejoin="round"/>
<path d="M108.944 206.242C108.944 206.242 109.475 206.518 110.005 207.07C110.535 207.483 111.651 207.276 112.59 207.276C113.084 207.276 113.605 206.876 114.048 206.671C114.945 206.256 114.41 207.037 114.195 207.483C113.958 207.978 114.229 208.898 114.659 209.207C115.369 209.719 116.071 209.277 116.765 208.916C117.054 208.766 116.975 208.697 117.064 208.901C117.185 209.178 117.163 209.58 117.163 209.882C117.163 210.569 117.12 211.712 116.765 212.311C116.299 213.099 115.828 213.609 115.079 214.188C114.339 214.761 113.36 215.759 112.376 215.759C110.453 215.759 108.412 215.323 107.449 213.376C107.041 212.551 106.293 211.875 106.293 210.932C106.293 210.144 106.043 209.201 106.293 208.449C106.596 207.537 107.354 206.671 107.088 206.671C107.224 206.711 108.414 205.966 108.944 206.242Z" stroke="#00ADB5" stroke-opacity="0.5" stroke-linecap="round" stroke-linejoin="round"/>
<path d="M111.132 205.759C111.877 205.472 113.581 204.87 113.982 203.932C114.292 203.206 113.267 203.07 112.722 203.07C112.061 203.07 111.278 204.02 111.102 204.621C111.004 204.956 110.911 205.298 110.815 205.637C110.768 205.8 110.831 205.918 110.863 206.07C110.887 206.185 111.899 205.632 111.861 205.474" stroke="#00ADB5" stroke-opacity="0.5" stroke-linecap="round" stroke-linejoin="round"/>
<path d="M124.282 221.279L95.3997 221.939C92.1699 222.012 89.5901 224.652 89.5901 227.882C89.5901 231.166 92.252 233.828 95.5355 233.828H124.419C127.733 233.828 130.419 231.142 130.419 227.828V227.277C130.419 223.91 127.649 221.202 124.282 221.279Z" stroke="#00ADB5" stroke-opacity="0.5"/>
<path d="M101.605 221.777C102.045 222.487 102.425 223.34 102.931 223.997C103.185 224.327 103.144 224.26 103.637 224.07C104.459 223.753 105.391 223.98 106.248 223.98C107.002 223.98 107.877 223.571 108.609 223.776C109.457 224.014 110.457 223.56 111.292 223.54C112.297 223.515 113.256 223.613 114.256 223.613C114.86 223.613 115.447 223.246 116.006 223.246C116.329 223.246 117.252 223.513 117.276 222.895C117.288 222.594 117.417 222.302 117.417 221.997C117.417 221.586 117.181 221.764 116.782 221.557" stroke="#00ADB5" stroke-opacity="0.5" stroke-linecap="round" stroke-linejoin="round"/>
<path d="M245.212 71.0062C245.756 70.2862 246.799 68.9538 245.338 68.7182C245.007 68.6649 244.698 68.4628 244.374 68.6157C243.375 69.0869 242.447 70.1242 242.447 71.3575C242.447 73.3273 244.523 73.7539 246.031 73.7284C248.576 73.6854 249.35 71.1055 250.249 69.0158C251.157 66.9048 252.166 64.8281 253.108 62.7323C254.174 60.3608 255.922 58.4716 257.028 56.1219C257.502 55.1143 258.121 54.227 258.732 53.307C259.679 51.8799 260.354 50.4401 261.031 48.8578C261.587 47.5595 262.203 46.374 262.884 45.1452C263.16 44.6483 263.056 43.8871 263.583 44.4183C263.982 44.8217 264.618 45.0867 265.156 45.1891C267.508 45.6372 269.671 46.1115 272.093 45.9112C274.542 45.7085 276.991 45.3433 279.402 44.8574C280.222 44.6922 279.872 44.8911 279.486 45.4087C278.83 46.2866 278.27 47.217 277.642 48.1065C276.823 49.2665 276.535 50.6636 276.05 51.9898C275.517 53.4476 274.883 54.8401 274.374 56.3219C273.39 59.1856 271.955 61.7972 270.179 64.2007C269.15 65.5936 267.879 68.0264 265.952 67.9279C262.97 67.7754 264.984 61.6678 266.409 60.4735C267.175 59.8306 268.014 60.5227 268.108 61.3858C268.236 62.5716 267.845 64.1967 266.739 64.7764C265.572 65.3879 264.677 65.3146 265.575 63.7372C266.119 62.7829 266.442 63.8332 266.665 63.3665" stroke="#00ADB5" stroke-opacity="0.5" stroke-width="2" stroke-linecap="round" stroke-linejoin="round"/>
<path d="M469.942 283.769C470.486 283.048 471.529 281.716 470.067 281.481C469.737 281.427 469.428 281.225 469.104 281.378C468.105 281.849 467.176 282.887 467.176 284.12C467.176 286.09 469.253 286.516 470.761 286.491C473.306 286.448 474.08 283.868 474.979 281.778C475.887 279.667 476.895 277.59 477.837 275.495C478.903 273.123 480.652 271.234 481.757 268.884C482.232 267.877 482.851 266.989 483.461 266.069C484.408 264.642 485.084 263.202 485.761 261.62C486.317 260.322 486.933 259.136 487.614 257.908C487.889 257.411 487.786 256.649 488.312 257.181C488.712 257.584 489.348 257.849 489.886 257.951C492.238 258.4 494.401 258.874 496.823 258.673C499.272 258.471 501.72 258.106 504.132 257.62C504.951 257.455 504.602 257.653 504.216 258.171C503.56 259.049 503 259.979 502.372 260.869C501.553 262.029 501.264 263.426 500.78 264.752C500.247 266.21 499.613 267.602 499.104 269.084C498.12 271.948 496.685 274.56 494.909 276.963C493.88 278.356 492.609 280.789 490.682 280.69C487.7 280.538 489.714 274.43 491.138 273.236C491.905 272.593 492.744 273.285 492.838 274.148C492.966 275.334 492.575 276.959 491.469 277.539C490.302 278.15 489.407 278.077 490.305 276.5C490.848 275.545 491.172 276.596 491.394 276.129" stroke="#00ADB5" stroke-opacity="0.5" stroke-width="2" stroke-linecap="round" stroke-linejoin="round"/>
<path d="M445.913 159.664C443.418 154.959 443.565 153.615 444.134 148.879C444.447 146.272 444.567 143.723 445.201 141.158C446.335 136.57 446.703 130.391 443.153 126.697C436.166 119.428 423.156 129.766 427.096 138.988C428.595 142.498 431.186 145.097 433.057 148.407C433.808 149.735 434.228 151.174 435.204 152.415C436.139 153.605 437.301 155.085 437.301 156.563C437.301 157.811 436.944 159.429 437.792 160.532C438.964 162.056 438.547 161.272 440.282 161.272C441.475 161.272 443.233 160.286 444.195 159.486C444.882 158.914 445.25 160.567 445.25 158.975C445.25 157.608 444.827 158.745 445.692 158.745" stroke="#00ADB5" stroke-opacity="0.5" stroke-linecap="round" stroke-linejoin="round"/>
<path d="M440.392 164.029C442.754 163.297 449.29 161.661 447.777 163.685C445.952 166.126 445.171 164.903 442.932 165.421C441.786 165.685 440.67 169.363 441.938 169.441C443.749 169.552 444.951 167.016 446.795 167.016C448.475 167.016 448.354 169.315 447.347 170.13C446.018 171.206 444.489 170.05 443.594 171.726C442.18 174.374 446.043 173.943 447.139 173.321C448.243 172.694 449.294 171.715 450.107 171.151" stroke="#00ADB5" stroke-opacity="0.5" stroke-linecap="round" stroke-linejoin="round"/>
<path d="M445.913 158.918C445.883 159.118 445.851 160.468 445.333 160.468C445.054 160.468 444.926 160.292 444.671 160.44C444.371 160.613 444.09 161.021 443.803 161.26C443.55 161.47 442.8 161.444 442.656 161.706C442.42 162.135 441.943 162.37 441.497 162.421C440.918 162.488 440.705 162.79 440.089 162.648C439.901 162.604 439.882 162.479 439.706 162.479C439.434 162.479 439.316 162.614 439.111 162.377C438.883 162.114 438.512 161.991 438.402 161.592C438.253 161.049 437.707 160.764 438.516 161.1" stroke="#00ADB5" stroke-opacity="0.5" stroke-linecap="round" stroke-linejoin="round"/>
<path d="M435.259 136.174C436.247 136.179 437.063 136.246 437.4 137.335C437.629 138.077 437.633 138.805 437.633 139.575C437.633 140.324 437.191 140.926 437.191 141.63C437.191 142.561 437.907 142.409 438.513 142.693C439.085 142.961 439.5 143.184 439.81 143.784C440.117 144.377 439.885 145.525 439.844 146.171C439.808 146.726 439.554 147.906 439.923 148.375C440.124 148.63 441.22 149.024 440.503 148.465" stroke="#00ADB5" stroke-opacity="0.5" stroke-linecap="round" stroke-linejoin="round"/>
<path d="M426.924 146.569C426.133 147.116 425.327 147.574 424.443 147.919C424.072 148.064 423.584 148.322 423.667 147.718" stroke="#00ADB5" stroke-opacity="0.5" stroke-linecap="round" stroke-linejoin="round"/>
<path d="M424.054 138.643C422.652 138.994 421.26 139.39 419.871 139.779C419.64 139.844 420.17 139.236 420.19 139.218" stroke="#00ADB5" stroke-opacity="0.5" stroke-linecap="round" stroke-linejoin="round"/>
<path d="M423.667 131.12C422.216 130.9 420.769 130.628 419.325 130.36C418.66 130.237 418.379 130.328 418.754 129.741" stroke="#00ADB5" stroke-opacity="0.5" stroke-linecap="round" stroke-linejoin="round"/>
<path d="M431.505 123.136C430.359 122.927 429.365 122.725 428.328 122.185C427.843 121.933 427.376 121.63 426.869 121.426C426.266 121.184 426.253 121.258 426.924 120.839" stroke="#00ADB5" stroke-opacity="0.5" stroke-linecap="round" stroke-linejoin="round"/>
<path d="M441.497 117.967C441.664 119.186 441.609 119.916 441.135 121.021C440.88 121.616 440.663 122.369 440.537 123.012C440.494 123.233 440.469 123.359 440.325 123.526C440.272 123.588 440.469 122.848 440.503 122.734" stroke="#00ADB5" stroke-opacity="0.5" stroke-linecap="round" stroke-linejoin="round"/>
<path d="M449.942 122.849C449.576 124.118 449.053 125.336 448.74 126.608C448.581 127.251 448.681 127.29 448.949 126.64" stroke="#00ADB5" stroke-opacity="0.5" stroke-linecap="round" stroke-linejoin="round"/>
<path d="M453.475 131.981C452.221 133.11 451.192 134.512 450.218 135.899C450.096 136.073 449.955 136.135 449.819 136.276C449.512 136.596 450.043 135.873 450.108 135.772" stroke="#00ADB5" stroke-opacity="0.5" stroke-linecap="round" stroke-linejoin="round"/>
<path d="M172.414 247.189C174.249 255.791 176.316 264.412 177.529 273.144C178.208 278.022 176.719 270.983 176.533 269.988C176.133 267.834 175.673 265.926 175.673 263.723C175.673 259.29 175.559 254.807 175.243 250.369C175.022 247.262 171.354 238.011 175.99 245.729C180.717 253.598 184.055 262.299 187.263 270.883C187.705 272.066 188.318 273.187 188.802 274.322C189.067 274.942 184.105 269.896 182.193 268.811" stroke="#00ADB5" stroke-opacity="0.5" stroke-width="2" stroke-linecap="round" stroke-linejoin="round"/>
<path d="M169.561 266.267C174.859 264.067 186.539 259.919 189.934 253.737C191.356 251.147 191.079 252.344 187.082 253.124" stroke="#00ADB5" stroke-opacity="0.5" stroke-width="2" stroke-linecap="round" stroke-linejoin="round"/>
<path d="M185.452 237.438C189.54 245.858 192.501 254.824 193.624 264.171C193.728 265.037 193.921 265.987 194.507 266.597C194.616 266.71 192.546 262.679 191.972 261.603" stroke="#00ADB5" stroke-opacity="0.5" stroke-width="2" stroke-linecap="round" stroke-linejoin="round"/>
<path d="M185.452 237.014C188.622 238.99 200.265 246.287 192.673 250.934C192.007 251.342 191.226 251.718 190.749 252.371C189.74 253.752 189.619 254.157 190.342 252.276" stroke="#00ADB5" stroke-opacity="0.5" stroke-width="2" stroke-linecap="round" stroke-linejoin="round"/>
<path d="M196.046 232.775C197.396 242.293 199.713 252.752 199.713 262.451C199.713 264.592 199.369 260.627 198.898 259.484" stroke="#00ADB5" stroke-opacity="0.5" stroke-width="2" stroke-linecap="round" stroke-linejoin="round"/>
<path d="M205.417 249.733C207.654 256.671 208.805 260.76 202.248 262.781C200.008 263.472 202.715 260.086 203.29 259.672C205.251 258.259 207.204 253.711 205.01 251.428C204.137 250.52 202.048 251.667 201.433 250.581C200.528 248.979 202.558 245.945 203.788 245.163C207.325 242.914 206.88 246.084 205.417 245.069" stroke="#00ADB5" stroke-opacity="0.5" stroke-width="2" stroke-linecap="round" stroke-linejoin="round"/>
<path d="M327.814 120.985C329.164 128.379 334.725 149.97 331.49 143.238C331.141 142.513 330.851 141.898 330.821 141.075C330.713 138.03 330.494 134.847 329.484 131.957C328.64 129.54 328.816 127.034 328.816 124.462C328.816 123.947 327.975 119.892 328.055 119.865C328.905 119.57 332.415 124.006 333.049 124.771C336.257 128.639 339.501 133.084 341.793 137.617C342.974 139.95 343.329 140.786 340.512 141.152" stroke="#00ADB5" stroke-opacity="0.5" stroke-width="2" stroke-linecap="round" stroke-linejoin="round"/>
<path d="M327.48 135.936C330.615 134.281 333.603 132.958 336.837 131.764" stroke="#00ADB5" stroke-opacity="0.5" stroke-width="2" stroke-linecap="round" stroke-linejoin="round"/>
<path d="M336.503 121.333C339.714 126.337 342.772 131.663 346.509 136.284C347.042 136.943 348.162 138.14 348.162 136.593C348.162 134.482 347.038 132.3 346.528 130.296C345.712 127.09 344.953 123.869 344.263 120.637C343.597 117.517 344.066 118.682 345.191 121.024C347.056 124.903 349.018 128.437 351.615 131.88C353.364 134.199 353.546 132.907 353.546 130.875C353.546 127.184 351.814 124.148 350.538 120.83C349.176 117.286 349.267 112.448 347.716 109.221C347.113 107.966 347.029 111.943 346.862 113.335" stroke="#00ADB5" stroke-opacity="0.5" stroke-width="2" stroke-linecap="round" stroke-linejoin="round"/>
<path d="M354.548 108.815C354.633 109.223 355.878 119.347 358.076 118.203C359.039 117.702 359.275 116.169 360.266 115.653C361.873 114.817 363.61 116.298 364.239 117.74C365.905 121.552 363.988 125.967 360.972 128.287C356.794 131.5 358.224 125.716 358.224 124.114" stroke="#00ADB5" stroke-opacity="0.5" stroke-width="2" stroke-linecap="round" stroke-linejoin="round"/>
<path d="M356.553 108.12C355.952 109.83 354.859 117.768 354.53 114.688C354.327 112.786 354.687 111.34 354.882 109.51C355.346 105.171 358.537 108.662 357.222 106.381" stroke="#00ADB5" stroke-opacity="0.5" stroke-width="2" stroke-linecap="round" stroke-linejoin="round"/>
<path d="M334.267 336.508C334.155 336.295 329.334 327.656 329.752 327.408C330.33 327.064 331.41 327.399 332.091 327.133C334.103 326.348 335.723 324.728 337.379 323.388C339.12 321.978 341.506 333.036 342.036 335.365C342.677 338.183 344.348 341.929 341.223 343.555C338.405 345.02 334.699 344.578 331.623 344.507C326.605 344.391 323.137 335.821 322.552 331.556C322.126 328.451 317.992 318.483 322.43 316.489C323.618 315.955 325.636 316.32 326.925 316.32C328.769 316.32 330.378 315.177 332.253 315.177C335.237 315.177 336.139 319.055 333.535 314.796" stroke="#00ADB5" stroke-opacity="0.5" stroke-width="2" stroke-linecap="round" stroke-linejoin="round"/>
<path d="M342.687 317.843C343.207 319.815 344.88 330.762 349.276 327.959C350.113 327.425 350.722 326.131 351.026 325.207C351.835 322.742 352.006 320.683 350.192 318.795C348.832 317.381 346.207 314.494 344.233 314.415C339.335 314.219 343.656 319.927 343.053 318.986" stroke="#00ADB5" stroke-opacity="0.5" stroke-width="2" stroke-linecap="round" stroke-linejoin="round"/>
<path d="M343.419 300.321C347.035 306.27 352.491 312.812 354.686 319.663C354.966 320.537 354.976 321.131 355.5 321.949C356.29 323.182 356.664 324.972 357.412 323.091C358.495 320.368 360.963 317.951 362.903 315.854C365.297 313.268 365.624 314.034 361.357 314.034" stroke="#00ADB5" stroke-opacity="0.5" stroke-width="2" stroke-linecap="round" stroke-linejoin="round"/>
<path d="M368.679 298.417C368.225 299.484 361.328 313.685 367.988 310.458C369.313 309.816 370.664 308.817 370.489 307.178C370.321 305.597 369.052 304.356 368.395 302.988C368.023 302.214 366.538 298.489 367.052 299.559C368.581 302.741 370.635 308.408 372.91 310.775C375.56 313.532 377.148 310.635 374.537 309.082" stroke="#00ADB5" stroke-opacity="0.5" stroke-width="2" stroke-linecap="round" stroke-linejoin="round"/>
<path d="M372.706 299.94C382.896 316.758 370.002 297.888 372.971 294.586C375.843 291.391 379.238 297.527 380.313 299.475C382.186 302.868 384.03 311.671 381.126 302.607" stroke="#00ADB5" stroke-opacity="0.5" stroke-width="2" stroke-linecap="round" stroke-linejoin="round"/>
<path d="M385.52 285.466C385.347 286.101 379.881 302.105 383.974 300.618C385.713 299.986 387.46 298.555 388.387 296.914C389.458 295.02 389.957 292.423 389.18 290.333C388.651 288.908 388.079 287.386 387.35 286.058C385.617 282.903 390.287 292.652 391.682 295.983C393.725 300.86 398.648 317.959 387.045 314.563C381.984 313.082 386.75 304.892 386.252 304.892" stroke="#00ADB5" stroke-opacity="0.5" stroke-width="2" stroke-linecap="round" stroke-linejoin="round"/>
<path d="M241.434 206.765C243.253 206.245 244.805 205.721 246.084 204.223C246.588 203.633 246.657 202.879 246.914 202.164C247.249 201.235 246.832 200.046 246.547 199.154C246.318 198.441 247.567 198.041 248.013 198.011C248.779 197.96 249.365 198.467 250.102 198.512C250.987 198.566 251.931 198.861 252.544 199.58C252.961 200.067 253.519 200.182 253.979 200.605C254.416 201.006 254.762 201.706 255.078 202.22C255.993 203.707 256.251 205.442 256.517 207.143C256.645 207.959 256.722 208.846 256.59 209.67C256.432 210.654 256.6 211.6 256.227 212.543C255.969 213.194 255.556 214.057 254.969 214.442C254.366 214.837 253.806 214.979 253.652 215.798C253.331 217.508 254.156 219.183 253.838 220.909C253.556 222.442 251.609 222.676 250.406 222.922C249.575 223.091 248.065 223.356 247.264 222.903C245.773 222.059 244.693 221.005 243.586 219.662C242.606 218.472 242.236 216.733 242.106 215.212C241.974 213.659 241.973 211.973 242.006 210.403C242.029 209.361 242.32 208.314 242.415 207.275C242.493 206.425 242.752 206.357 242.333 207.445" stroke="#00ADB5" stroke-opacity="0.5" stroke-linecap="round" stroke-linejoin="round"/>
<path d="M251.977 199.027C252.592 197.378 253.268 195.73 253.739 194.029C253.95 193.265 254.001 192.455 254.265 191.709C254.572 190.842 254.724 189.862 254.856 188.955C254.95 188.305 254.996 187.154 255.568 186.744C255.986 186.445 256.224 185.762 256.672 185.403C257.246 184.941 258.063 184.512 258.47 183.896C258.87 183.29 259.296 182.04 258.96 181.34C258.773 180.951 258.799 180.532 258.615 180.149C258.376 179.651 258.161 179.247 257.979 178.708C257.821 178.237 257.322 177.296 257.902 176.961C259.321 176.141 259.419 177.431 259.859 178.609C260.086 179.218 260.121 179.961 260.331 180.593C260.475 181.026 260.731 180.713 260.926 180.962C261.22 181.336 261.235 181.804 261.457 182.209C261.79 182.815 261.399 184.044 261.23 184.637C260.917 185.735 260.595 186.729 260.131 187.784C258.937 190.499 256.99 192.786 255.655 195.418C255.147 196.419 254.74 197.428 254.492 198.536C254.352 199.166 253.938 199.765 253.938 200.43C253.938 201.037 253.794 201.348 254.102 200.388" stroke="#00ADB5" stroke-opacity="0.5" stroke-linecap="round" stroke-linejoin="round"/>
<path d="M258.352 178.534C257.311 178.7 256.176 178.763 255.246 179.247C255.118 179.313 255.317 179.14 255.409 179.129C256.655 178.976 258.016 177.82 259.151 177.258C259.995 176.84 261.149 175.898 262.111 175.898C262.39 175.898 261.185 176.705 261.049 176.833" stroke="#00ADB5" stroke-opacity="0.5" stroke-linecap="round" stroke-linejoin="round"/>
<path d="M257.289 180.404C258.447 179.704 260.464 178.944 261.312 177.768C261.394 177.654 261.455 177.5 261.575 177.428C261.996 177.178 261.252 177.457 261.13 177.513" stroke="#00ADB5" stroke-opacity="0.5" stroke-linecap="round" stroke-linejoin="round"/>
<path d="M258.106 181.51C259.496 180.956 262.037 180.464 262.801 178.874C262.911 178.644 262.666 178.704 262.519 178.704" stroke="#00ADB5" stroke-opacity="0.5" stroke-linecap="round" stroke-linejoin="round"/>
<path d="M259.577 181.34C259.489 183.29 259.508 185.273 258.438 186.943C257.916 187.757 257.554 188.299 257.371 189.253C257.175 190.272 256.96 191.123 256.513 192.054C256.071 192.973 255.554 193.724 255.119 194.605C254.893 195.062 254.338 195.503 254.447 196.051C254.502 196.328 254.369 196.577 254.283 196.835C254.028 197.603 253.551 198.279 253.103 198.942C252.799 199.392 252.803 200.2 253.203 199.367" stroke="#00ADB5" stroke-opacity="0.5" stroke-linecap="round" stroke-linejoin="round"/>
<path d="M252.958 197.071C253.695 197.238 254.817 197.751 255.573 197.751C255.587 197.751 254.93 196.927 254.837 196.816" stroke="#00ADB5" stroke-opacity="0.5" stroke-linecap="round" stroke-linejoin="round"/>
<path d="M253.448 193.585C254.491 194.048 255.536 194.507 256.572 194.988C256.814 195.1 256.8 195.117 256.717 195.03C256.537 194.843 256.385 194.641 256.227 194.435" stroke="#00ADB5" stroke-opacity="0.5" stroke-linecap="round" stroke-linejoin="round"/>
<path d="M254.429 191.289C255.685 191.695 256.94 192.133 258.211 192.489C258.353 192.529 258.552 192.608 258.415 192.46C258.141 192.166 257.826 191.905 257.534 191.629" stroke="#00ADB5" stroke-opacity="0.5" stroke-linecap="round" stroke-linejoin="round"/>
<path d="M255.083 188.398C256.513 189.125 257.937 189.909 259.405 190.557C259.646 190.663 259.727 190.741 259.677 190.542C259.61 190.273 259.51 190.018 259.414 189.758" stroke="#00ADB5" stroke-opacity="0.5" stroke-linecap="round" stroke-linejoin="round"/>
<path d="M256.88 186.357C257.01 186.422 260.967 188.655 260.64 187.802" stroke="#00ADB5" stroke-opacity="0.5" stroke-linecap="round" stroke-linejoin="round"/>
<path d="M257.698 184.996C258.892 185.288 260.099 185.554 261.293 185.762" stroke="#00ADB5" stroke-opacity="0.5" stroke-linecap="round" stroke-linejoin="round"/>
<path d="M259.005 183.636C259.55 183.663 260.095 183.691 260.64 183.721" stroke="#00ADB5" stroke-opacity="0.5" stroke-linecap="round" stroke-linejoin="round"/>
<path d="M248.218 209.146C247.65 209.381 244.152 210.286 244.131 211.291C244.123 211.683 244.131 212.077 244.177 212.467C244.317 213.678 245.127 214.312 246.12 214.891C247.382 215.626 248.74 215.649 250.115 215.231C251.423 214.833 252.273 213.329 251.75 212.037C251.642 211.769 252.017 211.715 251.773 211.404C251.535 211.102 251.379 211.277 250.996 211.357" stroke="#00ADB5" stroke-opacity="0.5" stroke-linecap="round" stroke-linejoin="round"/>
<path d="M246.501 212.292C247.152 210.58 247.963 208.87 248.34 207.063C248.439 206.589 248.561 206.191 248.808 205.764C249.329 204.86 249.788 203.895 250.097 202.891C250.391 201.938 250.41 200.998 250.797 200.066C250.935 199.734 251.759 198.737 251.405 199.197" stroke="#00ADB5" stroke-opacity="0.5" stroke-linecap="round" stroke-linejoin="round"/>
<path d="M252.958 200.047C252.654 202.017 252.199 203.902 251.877 205.849C251.699 206.928 251.405 207.83 251.405 208.967C251.405 209.779 251.684 210.457 251.505 211.272C251.299 212.211 251.113 211.748 250.751 211.102" stroke="#00ADB5" stroke-opacity="0.5" stroke-linecap="round" stroke-linejoin="round"/>
<path d="M252.14 200.047C251.572 201.277 250.342 203.299 250.342 204.852C250.342 205.735 250.397 206.672 250.338 207.568C250.267 208.634 249.468 210.015 248.989 210.932C248.831 211.236 248.624 211.471 248.526 211.801C248.404 212.213 248.491 212.238 248.218 211.782" stroke="#00ADB5" stroke-opacity="0.5" stroke-linecap="round" stroke-linejoin="round"/>
<path d="M246.256 210.507C247.648 211.543 250.105 213.657 251.814 211.829C252.08 211.544 252.465 210.936 252.613 210.573C252.815 210.076 252.161 210.498 251.732 210.592" stroke="#00ADB5" stroke-opacity="0.5" stroke-linecap="round" stroke-linejoin="round"/>
<path d="M247.891 208.976C248.684 208.95 250.289 209.173 251.06 208.759C251.085 208.745 251.001 208.768 250.978 208.787C250.902 208.85 250.744 208.747 250.669 208.721" stroke="#00ADB5" stroke-opacity="0.5" stroke-linecap="round" stroke-linejoin="round"/>
<path d="M248.789 205.83C249.372 205.99 251.48 206.924 251.568 205.915" stroke="#00ADB5" stroke-opacity="0.5" stroke-linecap="round" stroke-linejoin="round"/>
<path d="M249.77 203.279C250.492 203.769 253.423 206.04 252.958 203.619" stroke="#00ADB5" stroke-opacity="0.5" stroke-linecap="round" stroke-linejoin="round"/>
<path d="M250.588 202.088C251.323 202.287 252.059 202.485 252.794 202.683" stroke="#00ADB5" stroke-opacity="0.5" stroke-linecap="round" stroke-linejoin="round"/>
<path d="M254.184 202.088C255.093 202.98 256.909 205.054 256.962 206.614C257.006 207.886 256.962 209.116 256.962 210.403C256.962 211.339 257.134 212.338 257.044 213.228C256.926 214.396 255.201 214.411 255.614 215.784C255.751 216.242 255.632 216.513 256.018 216.842C256.351 217.126 256.593 217.455 256.717 217.905C257.005 218.955 256.431 219.903 255.736 220.626C255.301 221.078 254.737 221.987 254.224 222.284C253.971 222.431 253.452 222.326 253.162 222.326C252.893 222.326 252.348 222.509 252.104 222.624C251.745 222.794 251.289 222.494 250.833 222.667" stroke="#00ADB5" stroke-opacity="0.5" stroke-linecap="round" stroke-linejoin="round"/>
<path d="M241.434 207.02C241.764 208.159 242.009 209.106 242.56 210.082C242.787 210.482 242.756 210.846 242.656 211.315C242.539 211.859 242.157 213.136 242.456 213.695C242.915 214.555 242.905 215.465 242.905 216.417C242.905 217.334 244.283 217.732 244.735 218.202C245.406 218.901 245.115 219.792 246.22 220.097C246.461 220.163 246.839 220.167 247.028 220.328C247.171 220.45 247.339 220.756 247.527 220.791C247.916 220.865 248.438 220.784 248.79 220.947C249.083 221.083 249.298 221.279 249.566 221.434C249.862 221.604 250.266 221.413 250.588 221.58C251.687 222.152 251.196 221.608 250.424 220.966" stroke="#00ADB5" stroke-opacity="0.5" stroke-linecap="round" stroke-linejoin="round"/>
<path d="M160.104 164.311C157.92 167.219 148.544 178.853 156.533 181.486C159.013 182.303 162.24 180.424 164.913 180.696C168.692 181.079 170.816 184.422 171.746 187.893C172.816 191.89 166.909 198.998 169.749 201.147C174.613 204.827 181.617 198.604 185.637 203.546C187.915 206.347 185.519 210.417 186.93 203.809" stroke="#00ADB5" stroke-opacity="0.5" stroke-linecap="round" stroke-linejoin="round"/>
<path d="M269.779 119.02C271.884 121.922 276.893 128.459 278.777 132.186C280.381 135.359 278.36 135.232 276.64 133.971C274.584 132.464 274.872 129.258 275.459 127.037C277.44 119.541 290.264 112.649 291.712 124.17C292.221 128.217 288.744 135.021 284.007 133.415C277.754 131.295 278.153 121.365 282.883 117.675C287.72 113.899 295.649 118.237 295.649 124.404C295.649 131.25 287.828 133.37 284.795 127.33C282.038 121.84 286.923 116.097 292.162 115.275C294.089 114.973 299.066 117.289 295.592 118.494" stroke="#00ADB5" stroke-opacity="0.5" stroke-linecap="round" stroke-linejoin="round"/>
<path d="M375.563 171.158C372.286 174.546 361.928 182.447 370.643 185.523C375.713 187.313 380.407 184.379 383.549 180.374C387.016 175.955 387.604 168.966 382.087 166.096C377.796 163.864 374.098 160.278 370.502 165.891" stroke="#00ADB5" stroke-opacity="0.5" stroke-linecap="round" stroke-linejoin="round"/>
<path d="M487.422 217.502C481.164 221.381 471.661 226.066 481.349 229.732C482.838 230.295 483.807 229.928 485.117 228.971C489.96 225.43 490.244 224.012 489.953 218.555C489.76 214.942 484.682 215.768 482.361 216.975C478.937 218.756 476.549 222.321 475.162 225.928C473.296 230.782 482.943 230.485 484.273 224.641C485.107 220.977 481.079 215.773 478.312 220.252C474.645 226.187 480.24 231.494 483.767 225.285C487.145 219.337 479.252 216.884 477.131 223.822C474.341 232.944 490.923 223.039 484.892 219.901C481.296 218.031 475.226 229.908 481.855 226.952C489.904 223.363 480.899 218.073 480.899 226.455C480.899 233.257 491.711 223.386 484.667 220.72C483.056 220.111 481.466 225.466 482.614 226.66C484.61 228.736 488.078 223.359 487.9 221.423C487.14 213.112 479.321 234.241 488.632 224.553C490.758 222.34 490.671 218.34 487.141 220.691C485.058 222.078 483.74 227.966 487.675 226.601C491.455 225.29 491.454 218.007 487.394 219.696C484.916 220.728 484.019 224.377 481.349 223.822" stroke="#00ADB5" stroke-opacity="0.5" stroke-linecap="round" stroke-linejoin="round"/>
<path d="M432.758 271.746C431.714 272.946 415.036 294.357 423.423 283.449C425.341 280.954 427.103 278.5 429.721 276.749C431.335 275.669 432.89 275.003 434.277 273.56C435.792 271.983 433.644 272.087 433.292 275.374C432.987 278.236 433.221 290.733 432.758 290.705C429.632 290.514 427.582 287.312 424.688 286.258C423.138 285.693 418.541 286.506 419.823 285.438C422.958 282.829 432.56 275.346 429.721 278.3C427.571 280.537 423.151 288.947 424.66 286.199C425.733 284.245 428.635 277.879 428.203 278.943C427.313 281.136 425.764 284.893 425.897 287.311C426.023 289.606 430.404 283.958 430.677 283.39C432.708 279.164 428.506 288.668 430.003 286.404C431.35 284.364 435.906 279.179 432.646 284.268C431.932 285.382 436.024 280.244 435.289 281.342C435.076 281.661 433.221 284.898 434.305 283.771C438.185 279.733 432.467 283.931 431.746 282.805" stroke="#00ADB5" stroke-opacity="0.5" stroke-linecap="round" stroke-linejoin="round"/>
<path d="M398.846 359.168C400.618 356.543 410.743 344.961 402.418 344.451C401.011 344.365 398.109 343.89 396.934 344.89C394.14 347.269 395.352 353.685 399.128 354.399C404.135 355.346 408.827 348.222 403.402 345.475C397.733 342.606 384.353 354.131 390.129 358.875C401.502 368.217 411.786 341.07 397.075 344.978C383.732 348.523 395.487 362.823 401.546 353.609C408.033 343.744 388.029 343.659 391.563 354.692C393.307 360.133 399.028 357.507 400.056 353.112C401.562 346.668 395.403 349.329 395.303 353.785C395.197 358.56 402.268 349.92 398.031 350.303C394.969 350.58 394.667 354.955 392.266 354.955" stroke="#00ADB5" stroke-opacity="0.5" stroke-linecap="round" stroke-linejoin="round"/>
<path d="M197.4 309.664C198.422 314.489 200.437 329.088 200.437 324.146C200.437 320.735 197.932 317.552 197.428 314.14C197.251 312.948 197.615 309.422 196.64 308.611C195.974 308.056 202.276 313.16 203.951 314.14C207.008 315.929 209.199 319.271 211.853 315.72C213.127 314.016 216.876 313.78 217.392 313.35C221.14 310.231 220.796 305.575 221.667 301.501C221.977 300.048 221.189 306.462 221.189 308.347C221.189 310.759 221.607 313.953 222.229 316.218C223.112 319.434 222.759 310.357 221.92 308.611C220.557 305.774 220.682 303.257 220.682 300.184C220.682 298.971 229.144 314.179 227.656 315.34C227.034 315.825 218.749 313.447 216.24 314.287C214.078 315.009 212.103 315.853 210.053 316.92C209.493 317.211 208.568 318.273 208.929 317.973C210.214 316.903 214.145 313.979 212.584 314.521C210.44 315.264 208.333 317.423 206.398 318.617C202.75 320.866 201.57 320.552 200.043 324.41C199.823 324.966 202.546 324.895 203.08 325.053C206.91 326.192 209.318 323.088 212.697 321.66C217.058 319.816 222.073 316.03 226.756 315.457C230.292 315.024 224.916 313.734 224.732 313.35" stroke="#00ADB5" stroke-opacity="0.5" stroke-linecap="round" stroke-linejoin="round"/>
<path d="M390.748 106.908C400.287 103.726 415.736 100.067 424.266 92.8056C425.814 91.488 428.211 90.225 427.669 87.6855C425.631 78.1455 421.198 75.9081 412.456 76.9187C407.607 77.4792 402.954 82.1327 398.453 84.0283C393.819 85.9798 389.183 88.5438 384.955 91.3427C380.677 94.1756 383.156 95.5788 383.156 100.471C383.156 103.161 384.7 106.908 387.458 106.908C388.715 106.908 392.318 105.855 388.751 105.855C385.952 105.855 381.607 106.296 379.106 104.918C377.197 103.866 380.967 101.795 381.862 101.671C385.061 101.227 378.196 104.483 377.504 104.714C376.079 105.188 382.644 100.011 378.994 101.232C375.037 102.555 380.91 99.0065 382.143 98.3646C383.536 97.6401 382.321 98.7871 382.65 98.1891C383.175 97.2321 386.217 93.7164 383.465 96.5799C382.544 97.5385 385.544 94.9448 386.558 94.093C388.467 92.4886 386.045 94.9228 385.574 95.3218C383.403 97.1605 382.894 95.6768 381.131 96.4921C380.394 96.8329 378.6 97.9632 378.6 96.6384C378.6 94.3527 386.352 93.3114 387.767 93.2445C396.437 92.8345 402.504 88.8553 410.488 86.7785C414.33 85.7792 418.529 84.3398 422.129 82.5654C424.799 81.2494 430.148 77.1292 432.983 77.972C434.097 78.3031 416.91 88.7084 421.848 85.3156C425.932 82.5091 430.617 80.5384 424.491 85.813C419.584 90.0386 428.217 85.1167 428.906 85.4034C430.144 85.9186 421.284 91.1831 428.034 87.9488C430.615 86.7119 432.758 86.6508 432.758 83.7357C432.758 79.7787 433.799 75.0887 428.962 76.9187C423.381 79.0303 418.902 83.5438 413.131 85.3156C409.153 86.5371 405.277 88.0795 401.377 89.5288C396.851 91.2104 388.66 93.0909 385.433 97.1943C383.714 99.3812 380.651 107.904 386.98 104.216C392.786 100.833 393.71 93.9889 396.822 88.5925C398.367 85.9121 394.128 94.2538 393.504 97.3113C392.785 100.828 395.966 104.875 399.605 104.216C403.598 103.494 407.797 97.7573 409.222 94.2685C416.072 77.4999 403.648 93.7638 407.17 97.4284C410.907 101.317 416.603 91.0152 417.349 88.4755C418.247 85.4154 418.775 81.6434 419.851 78.7327C421.247 74.9575 412.337 79.2093 411.5 79.6396C406.866 82.0227 403.63 85.2016 400.477 89.4117C399.336 90.9357 394.755 98.1088 397.89 99.7397C402.092 101.925 407.25 95.1317 407.366 91.6061C407.762 79.6631 398.311 85.7839 392.604 90.465C389.077 93.3576 392.141 99.1388 392.772 98.4816" stroke="#00ADB5" stroke-opacity="0.5" stroke-linecap="round" stroke-linejoin="round"/>
<path d="M262.693 392.346C262.473 392.529 254.145 400.003 254.145 397.876C254.145 396.63 255.066 395.296 255.888 394.482C257.512 392.872 263.929 391.633 262.383 395.565C261.347 398.201 257.111 402.087 255.916 397.115C255.42 395.051 258.826 390.908 260.893 392.668C263.173 394.609 258.271 397.082 256.731 396.208C253.981 394.647 257.284 389.09 259.937 390.24C262.712 391.443 258.896 394.731 257.631 395.389C254.675 396.927 255.089 394.441 253.582 392.873" stroke="#00ADB5" stroke-opacity="0.5" stroke-linecap="round" stroke-linejoin="round"/>
<path d="M125.527 391.82C128.445 396.822 134.001 402.013 128.339 406.566C126.878 407.74 118.262 412.435 118.778 406.975C119.407 400.326 128.93 400.178 129.52 394.219C130.103 388.325 116.575 390.546 113.492 386.553C111.56 384.052 110.002 378.51 110.455 375.318C110.631 374.075 113.66 371.663 113.351 373.914C112.785 378.034 100.017 388.588 107.587 392.054C112.662 394.377 113.971 388.495 117.71 387.08C125.411 384.166 113.885 405.777 113.885 400.246" stroke="#00ADB5" stroke-opacity="0.5" stroke-linecap="round" stroke-linejoin="round"/>
<path d="M373.539 460.283C371.195 466.054 366.453 483.84 366.453 477.574C366.453 476.597 366.635 475.825 366.959 474.912C368.483 470.621 370.247 466.628 372.808 462.857C374.206 460.799 375.871 454.772 377.869 459.346C378.802 461.48 381.469 467.422 380.344 469.762C378.932 472.7 374.55 474.385 371.627 474.502C370.866 474.532 362.881 475.624 365.469 473.156C368.509 470.256 371.451 461.436 376.042 460.839C376.75 460.746 378.231 461.239 378.854 461.599C379.95 462.233 378.614 463.378 378.094 464.262C377.471 465.322 372.536 472.483 372.527 472.161C372.387 467.362 377.119 460.395 379.669 456.772C380.584 455.472 375.718 464.291 374.608 466.281C373.748 467.82 374.869 471.092 371.008 470.289" stroke="#00ADB5" stroke-opacity="0.5" stroke-linecap="round" stroke-linejoin="round"/>
<path d="M216.633 36.8648C214.375 46.0569 212.363 54.8151 211.544 64.1915C211.462 65.1294 210.892 65.7358 211.459 66.4736C212.304 67.5717 214.537 60.5897 215.396 58.7203C218.12 52.7949 221.189 50.4566 221.189 43.1844C221.189 42.1351 221.189 36.0956 221.189 40.0831C221.189 43.4685 221.805 46.8144 221.582 50.2063C221.414 52.77 219.049 59.6889 220.795 57.8718C223.49 55.0672 221.331 41.0049 217.111 40.639C211.352 40.1396 208.575 53.129 207.916 57.1696C207.151 61.8708 210.336 63.839 213.849 60.1832C218.645 55.1934 219.685 44.9347 215.565 39.0884C209.904 31.0564 206.189 45.5488 205.723 49.0945C204.669 57.1151 208.974 59.6853 214.074 53.9806C215.95 51.8824 219.732 48.2543 218.939 44.9984C217.884 40.6676 211.732 44.8731 210.503 46.7539C208.762 49.4209 208.784 56.064 211.6 57.9596C214.229 59.7295 216.787 52.3957 216.493 50.5574C215.244 42.7611 201.12 55.1374 208.141 59.5688C214.252 63.4256 218.303 46.1709 210.784 48.3046C208.691 48.8987 203.718 54.7705 208.029 54.7705" stroke="#00ADB5" stroke-opacity="0.5" stroke-linecap="round" stroke-linejoin="round"/>
<path d="M82.5042 186.957C80.2297 193.662 78.5923 197.942 72.8311 201.703C71.3846 202.647 69.473 204.318 69.1756 206.209C68.5403 210.249 74.6649 214.701 78.1457 213.494C85.4799 210.95 74.3816 203.397 73.1967 201.205C71.1336 197.389 78.5901 190.534 82.0262 192.545C84.7008 194.111 85.8864 199.566 84.3038 202.229C81.9983 206.11 77.043 206.263 73.1686 205.653C70.083 205.166 63.9024 205.828 65.717 210.597C67.9875 216.565 78.7035 213.437 80.3109 208.374C81.8758 203.444 73.4037 201.586 75.2213 196.963C76.4697 193.788 80.4118 189.824 83.9101 189.824C88.1006 189.824 83.9158 197.969 83.2915 199.245C80.5348 204.883 76.317 205.445 70.9753 206.969C60.9217 209.837 71.7523 210.241 72.3812 206.969" stroke="#00ADB5" stroke-opacity="0.5" stroke-linecap="round" stroke-linejoin="round"/>
<path d="M70.3566 259.107C69.2821 263.316 66.1054 270.501 66.4199 275.081C66.5672 277.228 67.1308 270.84 67.3759 268.703C67.8431 264.632 68.3775 260.034 70.4691 256.473C70.8403 255.841 79.4247 266.991 80.1983 268.82C82.2688 273.716 79.6766 272.784 76.4304 274.379C74.6261 275.266 62.3145 279.788 62.3145 278.592C62.3145 277.34 64.6355 274.795 65.1826 273.735C66.8951 270.42 68.7325 266.258 69.4568 262.559C71.0036 254.658 69.8504 270.917 69.8504 272.156C69.8504 272.907 70.1312 277.305 68.4445 277.305C66.3336 277.305 69.8716 273.171 70.5815 271.102C71.3345 268.909 74.3314 262.444 73.5903 260.131C72.5407 256.854 72.0156 266.89 71.9032 270.342C71.8269 272.681 70.7389 276.586 72.4937 272.799C73.0528 271.593 74.8577 266.645 74.8276 267.006C74.5731 270.051 73.3935 273.19 73.3935 276.252C73.3935 279.385 74.9821 269.298 77.7238 268.001C78.4055 267.679 77.4427 273.625 77.4427 274.496C77.4427 276.081 78.9049 268.405 78.9049 269.99C78.9049 270.432 78.2982 273.103 77.8363 272.273C75.9434 268.871 74.5193 266.768 70.6378 265.543C68.87 264.985 63.2509 265.368 65.0983 265.368C66.3126 265.368 68.2197 260.971 69.5692 262.12C71.3598 263.644 68.9024 268.51 68.332 270.166C67.398 272.877 66.8132 269.064 69.1193 269.347C71.5223 269.641 69.0707 278.873 70.4128 276.778C71.0357 275.806 72.9226 271.01 72.8592 271.57C71.634 282.406 71.8889 268.608 73.8996 271.746" stroke="#00ADB5" stroke-opacity="0.5" stroke-linecap="round" stroke-linejoin="round"/>
<path d="M320.9 115.861C327.34 115.53 333.558 118.007 332.541 110.068C332.037 106.134 329.918 99.7022 331.023 95.8484C332.195 91.757 339.395 82.5299 333.244 79.6396C328.086 77.2159 321.345 84.0698 320.394 88.7095C319.998 90.6392 320.082 96.6676 323.149 96.6676C325.467 96.6676 326.947 94.2999 328.97 96.4043C331.614 99.1553 332.086 101.665 330.207 105.123C325.698 113.424 307.857 104.152 317.469 94.1514C318.787 92.7807 323.997 86.494 326.467 88.2999C329.865 90.7844 329.406 97.2529 327.648 100.471C325.896 103.68 319.464 107.041 316.935 102.929C315.685 100.897 316.283 99.5349 318.369 99.5349" stroke="#00ADB5" stroke-opacity="0.5" stroke-linecap="round" stroke-linejoin="round"/>
<path d="M374.822 165.146C375.416 164.896 393.932 155.385 393.071 160.611C392.609 163.415 392.918 166.031 393.296 168.832C393.441 169.904 395.951 178.253 393.437 178.253C388.752 178.253 384.18 175.805 379.49 176.732C377.545 177.116 373.673 178.502 373.528 175.269C373.42 172.844 371.484 161.945 376.087 163.01C379.881 163.887 380.046 160.754 377.352 167.72C376.97 168.709 374.457 176.14 374.878 175.795C379.088 172.353 381.398 165.735 385.254 161.722C387.662 159.217 383.534 169.273 383.033 170.529C380.47 176.947 387.019 165.09 387.757 163.917C390.993 158.766 388.536 167.987 388.038 169.505C386.54 174.068 391.143 165.548 392.987 164.414C399.095 160.658 393.324 173.63 392.031 170.939" stroke="#00ADB5" stroke-opacity="0.5" stroke-linecap="round" stroke-linejoin="round"/>
<path d="M324.949 264.373C325.24 272.114 325.11 276.337 331.416 271.453C333.206 270.068 332.445 273.346 332.007 274.145C331.274 275.48 326.977 282.189 331.304 279.616C332.399 278.965 335.353 277.665 335.353 280.172C335.353 280.568 334.029 285.412 335.325 284.063C337.449 281.853 337.487 273.521 337.602 270.283C337.628 269.576 337.925 268.754 337.321 269.113C334.219 270.957 332.746 280.615 331.135 284.385C329.745 287.64 325.736 283.805 323.43 282.279C319.06 279.385 321.809 281.44 321.912 281.225" stroke="#00ADB5" stroke-opacity="0.5" stroke-linecap="round" stroke-linejoin="round"/>
<path d="M290.025 333.363C290.006 333.608 289.412 348.726 289.518 341.38C289.551 339.137 289.489 336.893 289.518 334.65C289.602 328.281 290.695 331.236 293.343 333.86C294.557 335.063 299.011 337.66 298.292 340.092C298.08 340.809 290.929 342.104 289.8 342.55C288.952 342.884 283.951 346.161 283.951 346.002C283.951 342.089 285.275 337.854 285.722 333.948C286.669 325.677 292.169 347.818 292.527 342.228C292.612 340.912 292.555 333.078 292.555 335.031C292.555 336.486 293.568 344.241 293.568 339.156C293.568 338.005 293.568 336.854 293.568 335.704C293.568 335.161 293.852 337.758 294.046 337.254C294.747 335.43 293.568 331.762 293.568 336.23C293.568 341.246 292.216 337.635 289.265 337.635C286.741 337.635 285.295 347.26 286.594 345.007C287.732 343.035 285.491 335.002 286.482 339.127C287 341.286 288.247 338.899 289.012 338.103" stroke="#00ADB5" stroke-opacity="0.5" stroke-linecap="round" stroke-linejoin="round"/>
<path fill-rule="evenodd" clip-rule="evenodd" d="M301.751 277.529C299.4 276.641 297.161 275.343 295.118 273.541C279.695 259.938 286.308 239.414 295.642 228.729C304.976 218.044 362.073 222.306 335.138 271.806C335.025 271.876 334.909 271.948 334.791 272.019C331.78 281.94 334.319 290.449 337.367 300.659C338.609 304.823 339.937 309.27 341.006 314.211L312.439 312.092C304.587 301.054 301.611 289.926 301.751 277.529Z" fill="#F5B9AB"/>
<path d="M295.118 273.541L294.669 274.071L295.118 273.541ZM301.751 277.529L301.982 276.868C302.262 276.974 302.448 277.248 302.444 277.55L301.751 277.529ZM295.642 228.729L295.12 228.255L295.12 228.255L295.642 228.729ZM335.138 271.806L335.746 272.156C335.689 272.26 335.607 272.347 335.508 272.409L335.138 271.806ZM334.791 272.019L334.128 271.8C334.178 271.637 334.284 271.499 334.428 271.412L334.791 272.019ZM337.367 300.659L338.03 300.465L337.367 300.659ZM341.006 314.211L341.683 314.071C341.73 314.287 341.675 314.512 341.534 314.677C341.394 314.843 341.184 314.931 340.968 314.915L341.006 314.211ZM312.439 312.092L312.401 312.796C312.194 312.78 312.003 312.672 311.88 312.499L312.439 312.092ZM295.567 273.012C297.541 274.753 299.706 276.008 301.982 276.868L301.52 278.19C299.094 277.274 296.78 275.933 294.669 274.071L295.567 273.012ZM296.164 229.203C291.574 234.457 287.66 242.129 286.785 250.131C285.915 258.102 288.057 266.388 295.567 273.012L294.669 274.071C286.756 267.091 284.494 258.314 285.407 249.951C286.318 241.618 290.376 233.686 295.12 228.255L296.164 229.203ZM334.53 271.456C341.22 259.162 342.623 249.8 340.969 242.844C339.32 235.912 334.597 231.223 328.699 228.333C322.788 225.436 315.739 224.371 309.586 224.695C306.513 224.858 303.685 225.366 301.352 226.152C299.007 226.942 297.22 227.994 296.164 229.203L295.12 228.255C296.398 226.792 298.437 225.64 300.895 224.812C303.366 223.979 306.319 223.454 309.491 223.286C315.827 222.952 323.119 224.042 329.283 227.063C335.458 230.09 340.543 235.08 342.316 242.535C344.084 249.967 342.524 259.7 335.746 272.156L334.53 271.456ZM334.428 271.412C334.544 271.342 334.657 271.272 334.769 271.202L335.508 272.409C335.392 272.481 335.274 272.554 335.154 272.627L334.428 271.412ZM336.704 300.853C333.665 290.671 331.046 281.956 334.128 271.8L335.454 272.238C332.514 281.924 334.974 290.228 338.03 300.465L336.704 300.853ZM340.329 314.352C339.266 309.442 337.947 305.02 336.704 300.853L338.03 300.465C339.272 304.627 340.607 309.099 341.683 314.071L340.329 314.352ZM312.478 311.388L341.045 313.508L340.968 314.915L312.401 312.796L312.478 311.388ZM302.444 277.55C302.305 289.808 305.243 300.782 312.999 311.685L311.88 312.499C303.932 301.325 300.916 290.045 301.058 277.509L302.444 277.55Z" fill="black"/>
<path d="M340.263 241.913C344.733 248.352 339.918 264.255 336.366 268.233C365.802 251.323 347.166 213.17 338.084 220.127C336.604 206.022 320.97 201.045 310.313 212.975C283.594 190.635 282.188 228.701 291.619 234.49C301.05 240.279 312.492 234.766 318.43 237.751C324.368 240.737 328.032 258.819 329.956 248.783C331.879 238.747 334.675 233.865 340.263 241.913Z" fill="#00ADB5" stroke="black" stroke-width="1.39887"/>
<path d="M366.681 522.795L325.247 519.682L335.219 404.212C335.219 404.212 287.145 286.268 328.413 286.267C386.722 286.267 406.22 379.277 405.493 404.212C404.766 429.147 366.681 522.795 366.681 522.795Z" fill="#EEEEEE" stroke="black" stroke-width="1.39887"/>
<path d="M324.857 525.365L325.513 519.463L367.239 521.199L366.242 530.285C364.798 543.436 351.638 551.83 339.077 547.612C329.704 544.465 323.767 535.177 324.857 525.365Z" fill="#F5B9AB" stroke="black" stroke-width="1.39887" stroke-linejoin="round"/>
<path d="M264.791 439.7C237.838 412.644 271.333 323.024 276.795 312.359C284.749 297.16 308.621 270.72 340.483 286.548C388.663 310.484 366.646 428.916 357.986 469.969L264.791 439.7Z" fill="#EEEEEE" stroke="black" stroke-width="1.39887"/>
<path d="M349 457L235 447C235 447 177.28 457.907 141.5 467C105.754 476.084 51 493.5 51 493.5L55.5 534L231 540C231 540 309.5 565 339.5 532.5C369.5 500 349 457 349 457Z" fill="#00ADB5" stroke="black" stroke-width="1.4"/>
<path fill-rule="evenodd" clip-rule="evenodd" d="M177.105 462.407L159.188 520.1L121.596 518.199L104.441 410.552C101.583 392.619 114.91 376.53 132.623 376.53L155.601 376.53L157.208 373.93L165.164 376.58C170.422 376.886 175.247 378.595 179.35 381.305L339.156 434.526C363.857 442.752 374.793 472.277 361.819 495.716L338.792 537.318C325.854 560.692 295.567 566.384 275.915 549.136L177.105 462.407Z" fill="#00ADB5"/>
<path d="M177.105 462.407L177.566 461.882L176.757 461.171L176.437 462.2L177.105 462.407ZM159.188 520.1L159.153 520.799L159.695 520.826L159.856 520.308L159.188 520.1ZM121.596 518.199L120.905 518.309L120.995 518.869L121.561 518.897L121.596 518.199ZM104.441 410.552L103.75 410.662L104.441 410.552ZM132.623 376.53V377.23V377.23V376.53ZM155.601 376.53V377.23H155.991L156.196 376.898L155.601 376.53ZM157.208 373.93L157.429 373.267L156.903 373.092L156.613 373.562L157.208 373.93ZM165.164 376.58L164.943 377.244L165.031 377.273L165.123 377.278L165.164 376.58ZM179.35 381.305L178.965 381.888L179.042 381.939L179.129 381.968L179.35 381.305ZM339.156 434.526L338.935 435.189L339.156 434.526ZM361.819 495.716L361.207 495.377L361.819 495.716ZM338.792 537.318L338.18 536.979L338.792 537.318ZM275.915 549.136L276.377 548.61L275.915 549.136ZM176.437 462.2L158.52 519.893L159.856 520.308L177.773 462.615L176.437 462.2ZM159.223 519.402L121.631 517.5L121.561 518.897L159.153 520.799L159.223 519.402ZM122.287 518.089L105.131 410.442L103.75 410.662L120.905 518.309L122.287 518.089ZM105.131 410.442C102.338 392.912 115.361 377.23 132.623 377.23V375.831C114.459 375.831 100.828 392.325 103.75 410.662L105.131 410.442ZM132.623 377.23L155.601 377.23V375.831L132.623 375.831V377.23ZM156.196 376.898L157.803 374.298L156.613 373.562L155.006 376.163L156.196 376.898ZM156.987 374.594L164.943 377.244L165.385 375.916L157.429 373.267L156.987 374.594ZM165.123 377.278C170.253 377.577 174.96 379.244 178.965 381.888L179.736 380.721C175.534 377.947 170.59 376.196 165.205 375.882L165.123 377.278ZM179.129 381.968L338.935 435.189L339.377 433.862L179.571 380.641L179.129 381.968ZM338.935 435.189C363.198 443.27 373.981 472.299 361.207 495.377L362.431 496.054C375.604 472.255 364.517 442.235 339.377 433.862L338.935 435.189ZM361.207 495.377L338.18 536.979L339.404 537.657L362.431 496.054L361.207 495.377ZM338.18 536.979C325.448 559.98 295.678 565.551 276.377 548.61L275.454 549.661C295.456 567.217 326.259 561.404 339.404 537.657L338.18 536.979ZM276.377 548.61L177.566 461.882L176.644 462.933L275.454 549.661L276.377 548.61Z" fill="black"/>
<path d="M121.164 517.76L159.603 520.113L162.584 553.523C162.584 553.523 128.861 552.511 108.405 545.886L122.155 538.89L121.164 517.76Z" fill="#EEEEEE" stroke="black" stroke-width="1.39887" stroke-linejoin="round"/>
<rect width="97.2116" height="17.6874" rx="2.00878" transform="matrix(0.250552 0.968103 0.963608 -0.267319 108.208 274.217)" fill="#EEEEEE" stroke="black" stroke-width="1.39887"/>
<rect width="94.1065" height="18.2683" rx="2.00878" transform="matrix(-1 0 0 1 222.934 358.8)" fill="#00ADB5" stroke="black" stroke-width="1.39887"/>
<path d="M50.8667 493.005L55.6212 533.645L26.9279 541.844C26.9279 541.844 21.5218 506.829 24.1415 484.462L33.6176 497.352L50.8667 493.005Z" fill="#EEEEEE" stroke="black" stroke-width="1.39887" stroke-linejoin="round"/>
<path d="M193.357 387.895L214.89 350.749L280.911 387.969C277.884 345.013 306.362 283.194 336.266 286.959C388.727 293.565 350.078 427.443 315.711 451.041C281.345 474.639 193.357 387.895 193.357 387.895Z" fill="#EEEEEE"/>
<path d="M357.155 371.123C349.035 406.346 331.898 441.926 315.712 453.041C281.345 476.639 193.357 389.895 193.357 389.895L214.89 352.749L280.911 389.969L303.352 331.684" stroke="black" stroke-width="1.39887"/>
<path d="M211.148 348.062L215.093 350.983L193.399 387.925L186.951 383.167C176.125 375.177 174.996 359.035 184.614 349.739C191.875 342.72 202.982 342.018 211.148 348.062Z" fill="#F5B9AB" stroke="black" stroke-width="1.39887" stroke-linejoin="round"/>
</svg>
