<svg width="107" height="25" viewBox="0 0 107 25" fill="none" xmlns="http://www.w3.org/2000/svg">
<path d="M5.6 20.288C4.384 20.288 3.368 20.072 2.552 19.64C1.736 19.208 1.12 18.544 0.704 17.648C0.288 16.736 0.0560001 15.56 0.00800008 14.12L3.68 13.568C3.696 14.4 3.768 15.072 3.896 15.584C4.04 16.096 4.232 16.464 4.472 16.688C4.728 16.912 5.032 17.024 5.384 17.024C5.832 17.024 6.12 16.872 6.248 16.568C6.392 16.264 6.464 15.944 6.464 15.608C6.464 14.808 6.272 14.136 5.888 13.592C5.504 13.032 4.984 12.472 4.328 11.912L2.648 10.448C1.912 9.824 1.288 9.12 0.776 8.336C0.28 7.536 0.032 6.552 0.032 5.384C0.032 3.736 0.52 2.48 1.496 1.616C2.472 0.735999 3.8 0.295999 5.48 0.295999C6.52 0.295999 7.352 0.471999 7.976 0.823999C8.616 1.176 9.096 1.64 9.416 2.216C9.752 2.776 9.976 3.376 10.088 4.016C10.216 4.64 10.288 5.24 10.304 5.816L6.608 6.272C6.592 5.696 6.552 5.2 6.488 4.784C6.44 4.352 6.328 4.024 6.152 3.8C5.976 3.56 5.704 3.44 5.336 3.44C4.936 3.44 4.64 3.608 4.448 3.944C4.272 4.28 4.184 4.616 4.184 4.952C4.184 5.672 4.352 6.264 4.688 6.728C5.04 7.176 5.496 7.648 6.056 8.144L7.664 9.56C8.512 10.28 9.224 11.096 9.8 12.008C10.392 12.92 10.688 14.048 10.688 15.392C10.688 16.304 10.48 17.136 10.064 17.888C9.648 18.624 9.056 19.208 8.288 19.64C7.536 20.072 6.64 20.288 5.6 20.288ZM15.4081 20.24C14.7041 20.24 14.1121 20.072 13.6321 19.736C13.1521 19.4 12.7921 18.976 12.5521 18.464C12.3121 17.936 12.1921 17.4 12.1921 16.856C12.1921 15.992 12.3601 15.264 12.6961 14.672C13.0481 14.08 13.5041 13.584 14.0641 13.184C14.6241 12.784 15.2401 12.448 15.9121 12.176C16.5841 11.888 17.2481 11.632 17.9041 11.408V10.016C17.9041 9.776 17.8801 9.568 17.8321 9.392C17.7841 9.2 17.7041 9.056 17.5921 8.96C17.4801 8.848 17.3121 8.792 17.0881 8.792C16.8641 8.792 16.6881 8.84 16.5601 8.936C16.4481 9.032 16.3681 9.168 16.3201 9.344C16.2721 9.504 16.2401 9.688 16.2241 9.896L16.1281 10.904L12.4801 10.76C12.5601 9.096 13.0001 7.872 13.8001 7.088C14.6161 6.288 15.8321 5.888 17.4481 5.888C18.8561 5.888 19.9041 6.28 20.5921 7.064C21.2961 7.832 21.6481 8.832 21.6481 10.064V16.544C21.6481 17.12 21.6561 17.624 21.6721 18.056C21.7041 18.488 21.7361 18.864 21.7681 19.184C21.8161 19.504 21.8561 19.776 21.8881 20H18.3841C18.3361 19.632 18.2801 19.232 18.2161 18.8C18.1521 18.368 18.1041 18.112 18.0721 18.032C17.9121 18.608 17.6081 19.12 17.1601 19.568C16.7281 20.016 16.1441 20.24 15.4081 20.24ZM16.8001 17.6C16.9601 17.6 17.1041 17.568 17.2321 17.504C17.3761 17.44 17.5041 17.352 17.6161 17.24C17.7281 17.128 17.8241 17.016 17.9041 16.904V13.112C17.5841 13.304 17.2881 13.504 17.0161 13.712C16.7441 13.904 16.5121 14.12 16.3201 14.36C16.1281 14.6 15.9761 14.864 15.8641 15.152C15.7681 15.424 15.7201 15.736 15.7201 16.088C15.7201 16.552 15.8161 16.92 16.0081 17.192C16.2001 17.464 16.4641 17.6 16.8001 17.6ZM26.4142 20.24C25.8542 20.24 25.3742 20.104 24.9742 19.832C24.5902 19.544 24.3022 19.152 24.1102 18.656C23.9182 18.16 23.8222 17.608 23.8222 17V6.128H27.7342V16.544C27.7342 16.88 27.7902 17.144 27.9022 17.336C28.0302 17.512 28.2462 17.6 28.5502 17.6C28.7262 17.6 28.9102 17.56 29.1022 17.48C29.2942 17.384 29.4942 17.28 29.7022 17.168V6.128H33.5902V20H29.7022V18.728C29.2062 19.192 28.6782 19.56 28.1182 19.832C27.5742 20.104 27.0062 20.24 26.4142 20.24ZM36.2279 20V0.559999H40.1159V20H36.2279ZM42.8619 20V0.559999H47.7819C49.4779 0.559999 50.7979 0.775999 51.7419 1.208C52.6859 1.624 53.3499 2.288 53.7339 3.2C54.1179 4.096 54.3099 5.264 54.3099 6.704V13.76C54.3099 15.216 54.1179 16.408 53.7339 17.336C53.3499 18.248 52.6859 18.92 51.7419 19.352C50.8139 19.784 49.5099 20 47.8299 20H42.8619ZM47.1579 17.024H47.8299C48.4859 17.024 48.9579 16.928 49.2459 16.736C49.5339 16.544 49.7099 16.256 49.7739 15.872C49.8539 15.488 49.8939 15.008 49.8939 14.432V5.96C49.8939 5.384 49.8459 4.92 49.7499 4.568C49.6699 4.216 49.4859 3.96 49.1979 3.8C48.9099 3.64 48.4459 3.56 47.8059 3.56H47.1579V17.024ZM61.2444 20.24C60.2364 20.24 59.3724 20.064 58.6524 19.712C57.9324 19.344 57.3804 18.816 56.9964 18.128C56.6124 17.424 56.4204 16.584 56.4204 15.608V10.52C56.4204 9.528 56.6124 8.688 56.9964 8C57.3804 7.312 57.9324 6.792 58.6524 6.44C59.3884 6.072 60.2524 5.888 61.2444 5.888C62.2684 5.888 63.1164 6.064 63.7884 6.416C64.4764 6.768 64.9884 7.288 65.3244 7.976C65.6764 8.664 65.8524 9.512 65.8524 10.52V13.304H60.2844V15.968C60.2844 16.32 60.3244 16.608 60.4044 16.832C60.4844 17.056 60.5964 17.216 60.7404 17.312C60.8844 17.408 61.0524 17.456 61.2444 17.456C61.4364 17.456 61.6044 17.416 61.7484 17.336C61.9084 17.24 62.0284 17.096 62.1084 16.904C62.2044 16.712 62.2524 16.448 62.2524 16.112V14.648H65.8524V15.992C65.8524 17.4 65.4444 18.464 64.6284 19.184C63.8124 19.888 62.6844 20.24 61.2444 20.24ZM60.2844 11.48H62.2524V10.088C62.2524 9.72 62.2044 9.432 62.1084 9.224C62.0284 9.016 61.9084 8.872 61.7484 8.792C61.6044 8.712 61.4284 8.672 61.2204 8.672C61.0284 8.672 60.8604 8.72 60.7164 8.816C60.5884 8.912 60.4844 9.08 60.4044 9.32C60.3244 9.544 60.2844 9.872 60.2844 10.304V11.48ZM72.2538 20.24C71.0378 20.24 70.0218 19.968 69.2058 19.424C68.4058 18.88 67.7498 17.992 67.2378 16.76L69.9018 15.584C70.1578 16.208 70.4538 16.704 70.7898 17.072C71.1418 17.424 71.5258 17.6 71.9418 17.6C72.2458 17.6 72.4698 17.536 72.6138 17.408C72.7738 17.28 72.8538 17.104 72.8538 16.88C72.8538 16.512 72.7098 16.176 72.4218 15.872C72.1498 15.568 71.6538 15.12 70.9338 14.528L69.9258 13.688C69.1898 13.064 68.6058 12.464 68.1738 11.888C67.7578 11.296 67.5498 10.568 67.5498 9.704C67.5498 8.952 67.7418 8.288 68.1258 7.712C68.5258 7.136 69.0538 6.688 69.7098 6.368C70.3658 6.048 71.0698 5.888 71.8218 5.888C72.9578 5.888 73.9098 6.2 74.6778 6.824C75.4458 7.448 75.9818 8.328 76.2858 9.464L73.7658 10.616C73.6698 10.312 73.5338 10.008 73.3578 9.704C73.1818 9.4 72.9658 9.144 72.7098 8.936C72.4698 8.728 72.2058 8.624 71.9178 8.624C71.6618 8.624 71.4538 8.696 71.2938 8.84C71.1498 8.984 71.0778 9.176 71.0778 9.416C71.0778 9.72 71.2458 10.048 71.5818 10.4C71.9338 10.752 72.4138 11.176 73.0218 11.672L74.0058 12.536C74.4058 12.872 74.7978 13.232 75.1818 13.616C75.5658 14 75.8778 14.424 76.1178 14.888C76.3738 15.352 76.5018 15.88 76.5018 16.472C76.5018 17.272 76.3018 17.96 75.9018 18.536C75.5018 19.096 74.9738 19.52 74.3178 19.808C73.6778 20.096 72.9898 20.24 72.2538 20.24ZM78.1777 20V6.128H82.0897V20H78.1777ZM78.1537 3.776V1.064H82.0897V3.776H78.1537ZM89.0173 24.8C87.9773 24.8 87.0733 24.696 86.3053 24.488C85.5373 24.28 84.9373 23.968 84.5053 23.552C84.0893 23.136 83.8813 22.608 83.8813 21.968C83.8813 21.536 83.9693 21.144 84.1453 20.792C84.3373 20.456 84.5933 20.16 84.9133 19.904C85.2493 19.632 85.6253 19.4 86.0413 19.208C85.4333 19.032 84.9613 18.768 84.6253 18.416C84.2893 18.064 84.1213 17.592 84.1213 17C84.1213 16.44 84.2573 15.96 84.5293 15.56C84.8013 15.144 85.1773 14.728 85.6573 14.312C85.2093 13.912 84.8653 13.424 84.6253 12.848C84.4013 12.256 84.2893 11.544 84.2893 10.712C84.2893 9.672 84.4813 8.792 84.8652 8.072C85.2493 7.352 85.8093 6.808 86.5453 6.44C87.2973 6.072 88.2013 5.888 89.2573 5.888C89.9773 5.888 90.6093 5.976 91.1533 6.152C91.6973 6.328 92.1613 6.6 92.5453 6.968C92.7213 6.696 92.9533 6.432 93.2413 6.176C93.5293 5.92 93.8573 5.704 94.2253 5.528L94.7293 5.288L95.6413 7.16C95.4973 7.208 95.2973 7.288 95.0413 7.4C94.7853 7.512 94.5133 7.632 94.2253 7.76C93.9533 7.888 93.7053 8.016 93.4813 8.144C93.6573 8.496 93.7933 8.896 93.8893 9.344C93.9853 9.792 94.0333 10.256 94.0333 10.736C94.0333 11.728 93.8493 12.584 93.4813 13.304C93.1293 14.024 92.6013 14.576 91.8973 14.96C91.1933 15.328 90.3133 15.512 89.2573 15.512C88.8093 15.512 88.3853 15.48 87.9853 15.416C87.5853 15.336 87.2173 15.24 86.8813 15.128C86.7853 15.256 86.6973 15.392 86.6173 15.536C86.5533 15.664 86.5213 15.808 86.5213 15.968C86.5213 16.16 86.6173 16.312 86.8092 16.424C87.0013 16.536 87.3453 16.624 87.8413 16.688L91.4893 17.096C92.6733 17.224 93.5453 17.608 94.1053 18.248C94.6653 18.872 94.9453 19.696 94.9453 20.72C94.9453 21.6 94.7453 22.344 94.3453 22.952C93.9613 23.56 93.3293 24.016 92.4493 24.32C91.5853 24.64 90.4413 24.8 89.0173 24.8ZM89.5213 21.968C90.4013 21.968 91.0733 21.896 91.5373 21.752C92.0173 21.608 92.2573 21.312 92.2573 20.864C92.2573 20.64 92.1933 20.456 92.0653 20.312C91.9373 20.184 91.7213 20.08 91.4173 20C91.1293 19.904 90.7133 19.832 90.1693 19.784L87.6013 19.52C87.4413 19.632 87.2973 19.76 87.1693 19.904C87.0573 20.032 86.9613 20.168 86.8813 20.312C86.8173 20.472 86.7853 20.64 86.7853 20.816C86.7853 21.2 86.9933 21.488 87.4093 21.68C87.8253 21.872 88.5293 21.968 89.5213 21.968ZM89.2573 13.184C89.4813 13.184 89.6653 13.144 89.8093 13.064C89.9533 12.968 90.0573 12.824 90.1213 12.632C90.2013 12.44 90.2573 12.184 90.2893 11.864C90.3213 11.544 90.3372 11.16 90.3372 10.712C90.3372 10.248 90.3213 9.864 90.2893 9.56C90.2573 9.24 90.2013 8.984 90.1213 8.792C90.0573 8.584 89.9533 8.44 89.8093 8.36C89.6653 8.264 89.4813 8.216 89.2573 8.216C89.0333 8.216 88.8493 8.264 88.7053 8.36C88.5613 8.44 88.4493 8.576 88.3693 8.768C88.3053 8.96 88.2573 9.216 88.2253 9.536C88.1933 9.856 88.1773 10.248 88.1773 10.712C88.1773 11.16 88.1933 11.544 88.2253 11.864C88.2573 12.168 88.3053 12.424 88.3693 12.632C88.4493 12.824 88.5613 12.968 88.7053 13.064C88.8493 13.144 89.0333 13.184 89.2573 13.184ZM96.5287 20V6.128H100.441V7.52C100.953 7.008 101.481 6.608 102.025 6.32C102.585 6.032 103.169 5.888 103.777 5.888C104.353 5.888 104.825 6.032 105.193 6.32C105.577 6.592 105.865 6.976 106.057 7.472C106.249 7.952 106.345 8.504 106.345 9.128V20H102.457V9.68C102.457 9.344 102.401 9.088 102.289 8.912C102.177 8.736 101.969 8.648 101.665 8.648C101.505 8.648 101.313 8.696 101.089 8.792C100.881 8.872 100.665 8.992 100.441 9.152V20H96.5287Z" fill="#EEEEEE"/>
</svg>
